<svg xmlns="http://www.w3.org/2000/svg" width="17.007" height="18.563" viewBox="0 0 17.007 18.563"><g transform="translate(-133.51 349.761) rotate(-90)"><path d="M82.1,81.89H71.044a2.281,2.281,0,0,0-4.325,0H64.993a.726.726,0,0,0,0,1.452h1.726a2.281,2.281,0,0,0,4.325,0H82.1a.726.726,0,1,0,0-1.452ZM68.882,83.445a.829.829,0,1,1,.829-.829A.83.83,0,0,1,68.882,83.445Z" transform="translate(266.931 53.176)" fill="#fff"/><path d="M82.1,210.423H80.377a2.281,2.281,0,0,0-4.325,0H64.993a.726.726,0,0,0,0,1.452H76.053a2.281,2.281,0,0,0,4.325,0H82.1a.726.726,0,1,0,0-1.452Zm-3.889,1.555a.829.829,0,1,1,.829-.829A.83.83,0,0,1,78.215,211.978Z" transform="translate(266.931 -69.134)" fill="#fff"/><path d="M82.1,338.955H74.155a2.281,2.281,0,0,0-4.325,0H64.993a.726.726,0,0,0,0,1.452H69.83a2.281,2.281,0,0,0,4.325,0H82.1a.726.726,0,1,0,0-1.452Zm-10.111,1.556a.829.829,0,1,1,.829-.829A.83.83,0,0,1,71.993,340.511Z" transform="translate(266.931 -191.446)" fill="#fff"/></g></svg>