<svg height='100px' width='100px'  fill="#000000" xmlns="http://www.w3.org/2000/svg" xmlns:xlink="http://www.w3.org/1999/xlink" version="1.1" x="0px" y="0px" viewBox="0 0 50 50" enable-background="new 0 0 50 50" xml:space="preserve"><g><g><path d="M32.067,17.624H17.039c-0.414,0-0.75-0.336-0.75-0.75s0.336-0.75,0.75-0.75h15.028c0.414,0,0.75,0.336,0.75,0.75    S32.481,17.624,32.067,17.624z"></path></g><g><path d="M32.067,20.999H17.039c-0.414,0-0.75-0.336-0.75-0.75s0.336-0.75,0.75-0.75h15.028c0.414,0,0.75,0.336,0.75,0.75    S32.481,20.999,32.067,20.999z"></path></g></g><g><g><path d="M32.067,14.005H17.039c-0.414,0-0.75-0.336-0.75-0.75s0.336-0.75,0.75-0.75h15.028c0.414,0,0.75,0.336,0.75,0.75    S32.481,14.005,32.067,14.005z"></path></g><g><path d="M32.067,24.618H17.039c-0.414,0-0.75-0.336-0.75-0.75s0.336-0.75,0.75-0.75h15.028c0.414,0,0.75,0.336,0.75,0.75    S32.481,24.618,32.067,24.618z"></path></g></g><g><path d="M34.303,40.807H14.805c-2.115,0-3.835-1.721-3.835-3.835v-25.83c0-2.115,1.72-3.835,3.835-3.835h19.498   c2.114,0,3.835,1.72,3.835,3.835v2.302c0,0.552-0.447,1-1,1s-1-0.448-1-1v-2.302c0-1.012-0.823-1.835-1.835-1.835H14.805   c-1.012,0-1.835,0.823-1.835,1.835v25.83c0,1.012,0.823,1.835,1.835,1.835h19.498c1.012,0,1.835-0.823,1.835-1.835v-8.91   c0-0.553,0.447-1,1-1s1,0.447,1,1v8.91C38.138,39.086,36.417,40.807,34.303,40.807z"></path></g><g><path d="M33.28,31.325c-0.178,0.355-3.224,3.219-3.224,3.219s0.476-4.153,0.655-4.508L41.495,8.46   c0.355-0.71,1.22-0.997,1.93-0.641l0,0c0.711,0.357,0.997,1.221,0.641,1.93L33.28,31.325z"></path></g><g><path d="M30.353,35.847c-0.019,0-0.036,0-0.056,0c-1.027-0.009-1.839-0.485-2.555-0.905c-1.172-0.688-1.946-1.144-3.514,0.194   c-0.315,0.27-0.788,0.232-1.058-0.083s-0.231-0.789,0.083-1.058c2.38-2.03,3.969-1.097,5.248-0.348   c0.607,0.356,1.182,0.693,1.809,0.699c1.875,0.018,2.719-1.089,2.752-1.136c0.236-0.333,0.704-0.42,1.041-0.185   c0.338,0.234,0.427,0.692,0.196,1.032C34.25,34.132,33.059,35.847,30.353,35.847z"></path></g></svg>