<svg height="126" viewBox="0 0 101 126" width="101" xmlns="http://www.w3.org/2000/svg"><path d="m72.28 58.02c-.2.15-.97.91-1.22 1.21l-20.76 20.81-20.96-20.96c-.3-.35-.61-.66-.91-.96-2.98-2.99-6.53-4.51-10.68-4.51-4.2 0-7.75 1.47-10.74 4.46-2.98 2.99-4.5 6.53-4.5 10.73l-.05 40.05h30.38l.05-25.31 17.41 16.75 17.12-16.5v25.06h30.38v-39.75c0-4.2-1.47-7.74-4.46-10.73s-6.54-4.25-10.73-4.46c-1.98-.09-4.21.41-6.03 1.22-.91.25-3.95 2.53-4.3 2.89z"/><path d="m93.95 22.68c-3.19-3.19-7.04-4.76-11.54-4.76-4.51 0-8.41 1.57-11.6 4.76-3.19 3.24-4.81 7.13-4.81 11.64s1.62 8.36 4.81 11.55c3.19 3.24 7.09 4.86 11.6 4.86 4.5 0 8.35-1.62 11.54-4.86 3.24-3.19 4.86-7.04 4.86-11.55s-1.62-8.4-4.86-11.64z"/><path d="m17.39 17.92c-4.51 0-8.4 1.57-11.59 4.76-3.19 3.24-4.81 7.13-4.81 11.64s1.62 8.36 4.81 11.55c3.19 3.24 7.08 4.86 11.59 4.86s8.36-1.62 11.55-4.86c3.24-3.19 4.86-7.04 4.86-11.55 0-4.5-1.62-8.4-4.86-11.64-3.19-3.19-7.04-4.76-11.55-4.76z"/></svg>