<svg id="Capa_1" enable-background="new 0 0 504.5 504.5" height="512" viewBox="0 0 504.5 504.5" width="512" xmlns="http://www.w3.org/2000/svg"><g><path d="m242 104.5-73.032 35.573c-6.562 3.293-11.775 8.781-14.74 15.51l-91.11 228.401c-9.418 21.331.188 46.265 21.458 55.688l90.623 40.156h67.301z" fill="#faa515"/><path d="m445 415.5v44c0 24.496-20.494 45-45 45h-185c-24.506 0-44-20.504-44-45v-259c0-7.726 2.19-15.051 7.109-21.01l55.623-67.394c6.321-7.66 15.334-12.596 25.268-12.596h97c9.934 0 18.947 4.936 25.269 12.596l55.623 67.394c4.918 5.959 8.109 13.285 8.109 21.01v180 35z" fill="#fad207"/><g clip-rule="evenodd" fill="#f8c201" fill-rule="evenodd"><path d="m292.431 275.013.001-.011-.258-.258c-.136-.139-.274-.277-.413-.413l-10.346-10.352-1.468 2.923c-3.423-1.228-7.107-1.902-10.947-1.902h-1c-17.921 0-32.5 14.58-32.5 32.5 0 3.712.634 7.276 1.785 10.602l-3.038 1.558 10.714 10.738c.045.045.09.091.135.136l.144.144.005-.003c5.866 5.762 13.901 9.325 22.755 9.325h1c17.921 0 32.5-14.58 32.5-32.5 0-8.721-3.459-16.644-9.069-22.487zm-23.431 39.987h-1c-9.649 0-17.5-7.851-17.5-17.5s7.851-17.5 17.5-17.5h1c9.649 0 17.5 7.851 17.5 17.5s-7.851 17.5-17.5 17.5z"/><path d="m386.304 268.197-10-10-138.608 138.606 10 10c1.465 1.464 3.385 2.197 5.304 2.197s3.839-.732 5.304-2.197l128-128c2.928-2.928 2.928-7.678 0-10.606z"/><path d="m388.271 351.959.009-.004-8.273-8.388.536 3.401c-4.126-1.9-8.711-2.968-13.543-2.968h-1c-17.921 0-32.5 14.58-32.5 32.5 0 4.631.98 9.036 2.734 13.027l-3.672-.535 9.952 9.938c.355.372.719.735 1.092 1.09l.228.228.002-.008c5.81 5.427 13.603 8.76 22.164 8.76h1c17.921 0 32.5-14.58 32.5-32.5 0-9.791-4.358-18.577-11.229-24.541zm-21.271 42.041h-1c-9.649 0-17.5-7.851-17.5-17.5s7.851-17.5 17.5-17.5h1c9.649 0 17.5 7.851 17.5 17.5s-7.851 17.5-17.5 17.5z"/></g><g fill="#f5f5f5"><path d="m243 399c-1.919 0-3.839-.732-5.304-2.197-2.929-2.929-2.929-7.678 0-10.606l128-128c2.93-2.929 7.678-2.929 10.607 0s2.929 7.678 0 10.606l-128 128c-1.464 1.465-3.384 2.197-5.303 2.197z"/><path d="m259 320h-1c-17.921 0-32.5-14.58-32.5-32.5s14.579-32.5 32.5-32.5h1c17.921 0 32.5 14.58 32.5 32.5s-14.579 32.5-32.5 32.5zm-1-50c-9.649 0-17.5 7.851-17.5 17.5s7.851 17.5 17.5 17.5h1c9.649 0 17.5-7.851 17.5-17.5s-7.851-17.5-17.5-17.5z"/><path d="m357 399h-1c-17.921 0-32.5-14.58-32.5-32.5s14.579-32.5 32.5-32.5h1c17.921 0 32.5 14.58 32.5 32.5s-14.579 32.5-32.5 32.5zm-1-50c-9.649 0-17.5 7.851-17.5 17.5s7.851 17.5 17.5 17.5h1c9.649 0 17.5-7.851 17.5-17.5s-7.851-17.5-17.5-17.5z"/></g><path d="m323.8 160.493c-3.255 0-6.251-2.135-7.201-5.418-1.151-3.979 1.142-8.138 5.121-9.289.851-.246 1.707-.516 2.545-.802 22.87-7.807 38.235-29.301 38.235-53.485v-84c0-4.142 3.358-7.5 7.5-7.5s7.5 3.358 7.5 7.5v84c0 30.602-19.446 57.8-48.39 67.68-1.061.362-2.145.704-3.223 1.016-.695.202-1.397.298-2.087.298z" fill="#e0a446"/><path d="m308 179c-12.958 0-23.5-10.542-23.5-23.5s10.542-23.5 23.5-23.5 23.5 10.542 23.5 23.5-10.542 23.5-23.5 23.5z" fill="#f5f5f5"/></g></svg>