<?xml version="1.0" encoding="utf-8"?>
<svg viewBox="3.993 4.385 56.013 55.229" xmlns="http://www.w3.org/2000/svg">
  <path d="M58.759,28.62l-9.439-8.05c-0.737-0.652-1.757-0.794-2.665-0.369c-0.907,0.426-1.474,1.276-1.474,2.297v0.793h-3.224v-6.633  c0-3.318-2.699-6.018-6.017-6.018h-7.682V7.417c0-1.021-0.454-1.87-1.275-2.466c-0.822-0.596-1.786-0.709-2.75-0.396L7.367,10.45  c-2.041,0.737-3.374,2.58-3.374,4.763v33.59c0,2.155,1.333,4.025,3.374,4.734l16.866,5.896c0.963,0.34,1.927,0.198,2.75-0.397  c0.822-0.566,1.275-1.445,1.275-2.438v-3.252h7.682c3.318,0,6.017-2.699,6.017-6.018v-8.022h3.224v0.794  c0,0.992,0.567,1.843,1.474,2.268c0.907,0.426,1.928,0.284,2.665-0.368l9.439-8.021c0.822-0.709,1.247-1.616,1.247-2.693  C60.006,30.236,59.581,29.301,58.759,28.62z M23.609,36.359c0,0.538-0.454,0.992-1.021,0.992c-0.539,0-0.992-0.454-0.992-0.992  v-8.703c0-0.566,0.454-1.02,0.992-1.02c0.567,0,1.021,0.453,1.021,1.02V36.359z M39.958,47.329c0,2.215-1.802,4.018-4.017,4.018  h-7.682V12.641h7.682c2.215,0,4.017,1.803,4.017,4.018v6.633h-6.285c-1.304,0-2.381,1.077-2.381,2.41v11.196  c0,1.304,1.077,2.409,2.381,2.409h6.285V47.329z"/>
</svg>