<svg xmlns="http://www.w3.org/2000/svg" width="199.964" height="322.24" viewBox="0 0 199.964 322.24"><g transform="translate(-41.419 -55.995)"><path d="M185.633,458l-1.668,6.929s-11.324,14.709-14.818,13.984c-2.285-.467.525-4.3,4.836-15.477l.9-4.62Z" transform="translate(-126.243 -100.704)" fill="#3a3b39"/><path d="M250.671,459.948l.05-9.239-17.294-.208-.217,13.509,1.067.083c4.77.325,24.274,1.309,27.476.375C265.33,463.425,250.671,459.948,250.671,459.948Z" transform="translate(-137.022 -99.458)" fill="#3a3b39"/><path d="M249.016,252.085l-7.171,172.309-21.088-.359,2.1-150.52L189.07,424.877H170.7L199.944,250.15Z" transform="translate(-126.637 -66.172)" fill="#e73a5e"/><path d="M216.535,260.295a3.744,3.744,0,0,1-.35-2.5,3.694,3.694,0,0,1,.834-2.343c.125.058-.267,1.076-.4,2.393S216.676,260.261,216.535,260.295Z" transform="translate(-134.18 -67.053)" fill="#263238"/><path d="M220.43,260a5.837,5.837,0,0,1,.35-5,23.706,23.706,0,0,1-.267,2.5A22.8,22.8,0,0,1,220.43,260Z" transform="translate(-134.832 -66.978)" fill="#263238"/><path d="M220,126.517c-.117-.05-4.753-1.409-4.6,3.335s4.87,3.6,4.878,3.469S220,126.517,220,126.517Z" transform="translate(-134.062 -45.596)" fill="#ffbe9d"/><path d="M219.019,131.862a1.881,1.881,0,0,1-.217.125.834.834,0,0,1-.617,0,2.035,2.035,0,0,1-1-1.8,2.609,2.609,0,0,1,.192-1.184.942.942,0,0,1,.6-.65.417.417,0,0,1,.492.208c.067.133.042.225.067.233s.1-.083.05-.275a.509.509,0,0,0-.192-.292.609.609,0,0,0-.459-.108,1.176,1.176,0,0,0-.834.759,2.893,2.893,0,0,0-.242,1.334,2.126,2.126,0,0,0,1.268,2,.892.892,0,0,0,.75-.15C219.01,131.971,219.035,131.871,219.019,131.862Z" transform="translate(-134.305 -45.897)" fill="#eb996e"/><path d="M218.32,119.46c.217,1.876.834,5.654,1.117,7.5a2.243,2.243,0,0,0,.617,1.459,1.543,1.543,0,0,0,2.085-.45,4.529,4.529,0,0,0,.675-2.243c.217-1.918.442-3.827.659-5.745" transform="translate(-134.548 -44.459)" fill="#263238"/><path d="M201.509,208.219,191.8,220.852l3.694,3.761L185.249,238s-18.212-10.94-17.711-13.976,24.891-51.849,24.891-51.849,9.831,1.026,9.081,15.385S201.509,208.219,201.509,208.219Z" transform="translate(-126.109 -53.218)" fill="#00aec8"/><g transform="translate(70.26 135.672)" opacity="0.3"><path d="M206.822,212.108c-1.768-3.744-3.16-7.455-4.57-11.357-.133-.367-.242-.834.042-1.117a.709.709,0,0,1,.892,0,2.084,2.084,0,0,1,.534.834,24.841,24.841,0,0,1,1.109-7.413c.117-.392.367-.834.767-.834s.55.6.567,1.026c.225,6.3.834,11.983,1.092,18.287" transform="translate(-202.116 -192.22)"/></g><g transform="translate(52.982 165.766)" opacity="0.3"><path d="M194.166,230.028a1.568,1.568,0,0,0-.759-1.017,3.769,3.769,0,0,0-1.242-.417,11.716,11.716,0,0,0-9.639,2.093,3.119,3.119,0,0,0-1.034,1.293,1.351,1.351,0,0,0,.367,1.518,1.434,1.434,0,0,0,1.251.142,5.078,5.078,0,0,0,1.142-.625,22.191,22.191,0,0,1,4.62-2.318,9.614,9.614,0,0,1,5.262-.617" transform="translate(-181.395 -228.309)"/></g><g transform="translate(83.505 171.336)" opacity="0.3"><path d="M218,235.44a78.567,78.567,0,0,0,41.059-.45Z" transform="translate(-218 -234.99)"/></g><path d="M216.4,262.15a26.409,26.409,0,0,1,4.094,7.938,36.329,36.329,0,0,1-2.093-3.944A37.655,37.655,0,0,1,216.4,262.15Z" transform="translate(-134.229 -68.166)" fill="#eb996e"/><path d="M212.258,261.7a5.161,5.161,0,0,1,1.576,2.31,5.3,5.3,0,0,1,.559,2.743c-.133,0-.375-1.192-.959-2.577S212.158,261.775,212.258,261.7Z" transform="translate(-133.539 -68.091)" fill="#eb996e"/><path d="M285.723,234.27s.275,3.052-.317,3.877-4.5.834-6.262.834H265.568l-.058-4.861Z" transform="translate(-142.388 -63.509)" fill="#ffbe9d"/><path d="M272.764,214.9a2.464,2.464,0,0,0-4.294,1.309,2.176,2.176,0,0,0,1.9,2.226,2.543,2.543,0,0,0,2.552-1.593A2.068,2.068,0,0,0,272.764,214.9Z" transform="translate(-142.88 -60.177)" fill="#fff"/><path d="M285.73,234.784a29.052,29.052,0,0,0-.267-7.888,2.735,2.735,0,0,0-.358-.951,1.142,1.142,0,0,0-.834-.525,1.168,1.168,0,0,0-1.034.642,3.219,3.219,0,0,0-.325,1.226c-.242,1.835-.442,5.962-.442,7.8" transform="translate(-145.206 -62.064)" fill="#ffbe9d"/><path d="M281.879,234.593a18.8,18.8,0,0,0,0-6.337,2.75,2.75,0,0,0-.367-.951,1.117,1.117,0,0,0-.834-.525,1.176,1.176,0,0,0-1.034.642,3.386,3.386,0,0,0-.333,1.226,43.838,43.838,0,0,0-.35,5.528" transform="translate(-144.623 -62.29)" fill="#ffbe9d"/><path d="M278.31,236.973a18.8,18.8,0,0,0,0-6.337,2.734,2.734,0,0,0-.359-.951,1.159,1.159,0,0,0-.834-.525,1.176,1.176,0,0,0-1.034.642,3.333,3.333,0,0,0-.334,1.234,43.632,43.632,0,0,0-.35,5.528" transform="translate(-144.031 -62.685)" fill="#ffbe9d"/><path d="M289.027,236.441a17.385,17.385,0,0,0-.142-4.895,2.635,2.635,0,0,0-.359-.942,1.037,1.037,0,0,0-1.868.108,3.336,3.336,0,0,0-.334,1.234,43.744,43.744,0,0,0-.325,5.57" transform="translate(-145.792 -62.836)" fill="#ffbe9d"/><path d="M278.15,237.05c0-.058.392,0,.684-.459a3.894,3.894,0,0,0,.158-2.06,11.29,11.29,0,0,1,.067-3.152,11.672,11.672,0,0,1,.367,3.135,10.294,10.294,0,0,1,0,1.242,1.667,1.667,0,0,1-.375,1.026.959.959,0,0,1-.659.342C278.233,237.133,278.15,237.075,278.15,237.05Z" transform="translate(-144.488 -63.054)" fill="#eb996e"/><path d="M282.33,237.2a1.084,1.084,0,0,0,.467-.834,5.994,5.994,0,0,0-.042-1.126c0-.475-.075-.942-.108-1.434a16.076,16.076,0,0,1,0-3.7,16.108,16.108,0,0,1,.442,3.677c0,.492.05.959.067,1.434a4.378,4.378,0,0,1-.05,1.209,1.076,1.076,0,0,1-.45.725C282.455,237.246,282.338,237.213,282.33,237.2Z" transform="translate(-145.183 -62.841)" fill="#eb996e"/><path d="M286.97,236.553a12.008,12.008,0,0,1-.475-5.5A33.851,33.851,0,0,1,286.97,236.553Z" transform="translate(-145.853 -62.999)" fill="#eb996e"/><g transform="translate(127.473 66.661)"><path d="M346,378.82c.409,1.618,4.336,70.878,4.336,70.878l14.526-1.084.951-69.769Z" transform="translate(-283.234 -154.211)" fill="#ffbe9d"/><path d="M366.095,463.2l-.042-1.526-15.493.317.092,5.045h.959c4.261.133,21.68.425,24.5-.425C379.278,465.689,366.095,463.2,366.095,463.2Z" transform="translate(-283.992 -167.975)" fill="#fb9300"/><path d="M275.01,213.723a14.684,14.684,0,0,1,1.626-19.279L302.16,169.82l4.886,18c-.45.25-19.771,17.87-19.771,17.87l13.742,20.271a10.974,10.974,0,0,1,.967,10.573l-.909,2.743a6.763,6.763,0,0,1-9.673,3.794l-4.169-2.276a.917.917,0,0,1-.284-1.359h0a.926.926,0,0,1,.834-.35l5.837.467a2.652,2.652,0,0,0,2.735-1.8h0Z" transform="translate(-270.964 -119.488)" fill="#ffbe9d"/><path d="M290.005,212.639c-1.017-1.5-2.327-2.835-3.335-4.169" transform="translate(-273.377 -125.909)" fill="#ffbe9d"/><path d="M373.694,185.169l5.712,10.34,3.5-28.109a11.341,11.341,0,0,0-1.167-5.912,11.452,11.452,0,0,0-3.869-4.586c-.9-.509-.742-1.834.183-1.935s3.419,1.242,5.378,3.936,2.176-2.5,2.293-4.378.717-7.688,1.318-8.105c.892-.6,1.718.259,1.568,2.143s-.217,7.555.775,7.588,1.409-9.564,1.409-9.564-.242-2.076.909-2.076c2.076,0,.876,10.165.734,11.132-.092.667.984.742,1.051,0s.208-9.6,2.318-9.606c1.618,0-.917,8.339.075,10.24s1.276-6.562,2.818-6.512c.584,0,1.009.117.15,4.92-.467,2.585-2.168,6.3-2.693,11.349l-.133,1.309s-2.877,24.624-7.2,39.633c-2.585,9-15.36,9.881-20.538,2.076-3.519-5.3-9.072-19.137-9.072-19.137Z" transform="translate(-285.429 -115.283)" fill="#ffbe9d"/><path d="M399.381,166.135a5.817,5.817,0,0,0-.834.217,2.977,2.977,0,0,0-1.593,1.326l-.2.35-.108-.392a5.088,5.088,0,0,0-.767-1.534,5.562,5.562,0,0,0-2.652-1.951c-.834-.292-1.376-.275-1.368-.342a2.61,2.61,0,0,1,1.443.1,5.312,5.312,0,0,1,2.869,1.976,5.064,5.064,0,0,1,.834,1.668H396.7a2.927,2.927,0,0,1,1.826-1.351A1.451,1.451,0,0,1,399.381,166.135Z" transform="translate(-290.853 -118.479)" fill="#eb996e"/><path d="M299.457,381.8c-.534,1.584-5.937,66.709-5.937,66.709l14.576,1,8.839-61.472Z" transform="translate(-274.515 -154.706)" fill="#ffbe9d"/><path d="M290.3,463.116l.05-1.526,15.468.342-.092,5-.959.042c-4.261.142-21.68.434-24.5-.425C277.129,465.618,290.3,463.116,290.3,463.116Z" transform="translate(-272.233 -167.962)" fill="#fb9300"/><path d="M311.963,230.762l-10.223,23.882L289.44,419.7h26.417l14.668-143.708L336.6,420.3l24.391-2.068-3.386-163.437a26.05,26.05,0,0,0-2.593-10.548l-6.738-13.825Z" transform="translate(-273.837 -129.556)" fill="#fb9300"/><path d="M390.547,218.62c-.117,0-.217-9.506-.217-21.23s.1-21.23.217-21.23.217,9.506.217,21.23S390.672,218.62,390.547,218.62Z" transform="translate(-290.599 -120.541)" fill="#fafafa"/><path d="M348.108,218.9s.292-25.166.25-25.583l16.269-1.868s-5-18.812-7.7-22.331c-7.1-9.172-18.345-7.5-18.345-7.5l-16.786-.2a12.412,12.412,0,0,0-1.434-.242,17.319,17.319,0,0,0-13.684,4.444L288.42,184.324l12.158,10.557,9.172-3.811,2.085,28.168Z" transform="translate(-273.668 -118.031)" fill="#386e4c"/><path d="M321.07,164.57l-.25,55.218,7.73.033Z" transform="translate(-279.051 -118.615)" opacity="0.3"/><path d="M355.82,161.992l2.243,60.163h5.145l-1.176-21.38,4.278,10.357a12.858,12.858,0,0,0,11.991,7.955h0a12.858,12.858,0,0,0,12.508-10.365l4.169-28.46-14.126-9.5-3.01,24.257-7.13-20.98a18.6,18.6,0,0,0-9.9-11.09A9.172,9.172,0,0,0,355.82,161.992Z" transform="translate(-284.866 -118.181)" fill="#00a650"/><path d="M304.493,164.194l-29.552,29.886a13.834,13.834,0,0,0-1.242,18.5l19.546,21.8,3.819-17.253-8.914-12.408,16.869-9.831-.467,27.134,8.2,1.134V161A12.851,12.851,0,0,0,304.493,164.194Z" transform="translate(-270.729 -118.022)" fill="#00a650"/><path d="M291.371,218.087c0,.117-4.328.217-9.656.217s-9.664-.1-9.664-.217,4.328-.217,9.664-.217S291.371,217.978,291.371,218.087Z" transform="translate(-270.948 -127.47)" fill="#fafafa"/><path d="M279.347,222.738c-.125,0-.217-5.679-.217-12.683s.092-12.675.217-12.675.217,5.67.217,12.675S279.464,222.738,279.347,222.738Z" transform="translate(-272.125 -124.066)" fill="#fafafa"/><path d="M293.568,216.148a40.461,40.461,0,0,1-3.769-4.695,42.525,42.525,0,0,1-3.419-4.953,40.456,40.456,0,0,1,3.769,4.695A43.36,43.36,0,0,1,293.568,216.148Z" transform="translate(-273.329 -125.582)" fill="#263238"/><path d="M341.141,112.144A7.43,7.43,0,0,1,352.2,114.5a11.673,11.673,0,0,1,.967,6.671c-.217,2.268-.725,4.5-.776,6.779-.067,2.927.609,5.962-.367,8.722a7.622,7.622,0,0,1-11.19,3.936c-2.076-1.284-3.394-3.461-4.611-5.57a27.463,27.463,0,0,1-3.661-8.655c-.55-3.1,0-6.571,2.243-8.806" transform="translate(-280.969 -109.65)" fill="#263238"/><path d="M346.971,153.192c-.367-4.636-5.72-1.818-5.12-6.429a195.057,195.057,0,0,0,1.5-31.353" transform="translate(-282.537 -110.448)" fill="#263238"/><path d="M328.761,152.128l-3.444-30.736c3.527-4.836,7.872-7.13,12.942-7.363a9.431,9.431,0,0,1,9.548,7.7c.992,5.062,2.093,11.891,1.843,16.085-.459,7.672-6.154,9.172-6.154,9.172s.2,2.585.484,5.745c1.468.242,3.844.634,5.462,1.034.075,0-.058.309-.35.834a15.843,15.843,0,0,1-25.149,2.46l-2.5-3.677S325.109,152.7,328.761,152.128Z" transform="translate(-279.154 -110.218)" fill="#ffbe9d"/><path d="M352.145,129.642a.976.976,0,0,1-.834,1.076.942.942,0,0,1-1.092-.775.984.984,0,0,1,.834-1.076.934.934,0,0,1,1.092.776Z" transform="translate(-283.934 -112.681)" fill="#263238"/><path d="M351.991,128.631c-.108.142-.892-.334-1.935-.225s-1.759.7-1.884.584.042-.292.35-.567a2.718,2.718,0,0,1,1.493-.625,2.568,2.568,0,0,1,1.559.342C351.916,128.356,352.049,128.573,351.991,128.631Z" transform="translate(-283.588 -112.504)" fill="#263238"/><path d="M339.367,131.213a.976.976,0,0,1-.834,1.076.934.934,0,0,1-1.084-.775.984.984,0,0,1,.834-1.076.934.934,0,0,1,1.084.775Z" transform="translate(-281.813 -112.942)" fill="#263238"/><path d="M339.231,130.091c-.108.142-.892-.325-1.935-.225s-1.759.7-1.884.584.042-.292.35-.567a2.785,2.785,0,0,1,1.493-.625,2.568,2.568,0,0,1,1.559.342A.931.931,0,0,1,339.231,130.091Z" transform="translate(-281.468 -112.746)" fill="#263238"/><path d="M345.3,137.167a6.254,6.254,0,0,1,1.668-.475c.258-.058.509-.133.534-.317a1.343,1.343,0,0,0-.258-.776l-.984-1.951a35.66,35.66,0,0,1-2.293-5.128,34.187,34.187,0,0,1,2.7,4.936l.959,1.968a1.542,1.542,0,0,1,.233,1.026.659.659,0,0,1-.392.434,2.184,2.184,0,0,1-.45.108A7.154,7.154,0,0,1,345.3,137.167Z" transform="translate(-282.897 -112.626)" fill="#263238"/><path d="M345.822,153.268A19.337,19.337,0,0,1,335.44,151.6s2.96,4.945,10.457,3.494Z" transform="translate(-281.48 -116.46)" fill="#eb996e"/><path d="M344.732,141.885a1.893,1.893,0,0,0-1.751-.534,1.751,1.751,0,0,0-1.126.759,1.092,1.092,0,0,0,.042,1.251,1.267,1.267,0,0,0,1.4.208,3.97,3.97,0,0,0,1.251-.926,1.059,1.059,0,0,0,.267-.342.35.35,0,0,0,0-.384" transform="translate(-282.516 -114.751)" fill="#eb996e"/><path d="M341.972,140.11c.167,0,.275,1.109,1.326,1.818s2.243.467,2.268.617-.25.25-.759.317a2.827,2.827,0,0,1-1.885-.459,2.452,2.452,0,0,1-1.042-1.526C341.772,140.41,341.872,140.11,341.972,140.11Z" transform="translate(-282.542 -114.552)" fill="#263238"/><path d="M348.479,126.887c.067.158.784,0,1.668,0s1.593.125,1.668,0-.659-.575-1.668-.567S348.412,126.72,348.479,126.887Z" transform="translate(-283.645 -112.26)" fill="#263238"/><path d="M335.865,127.3v-.025a7.263,7.263,0,0,1,1.668-.4c.992-.108,1.776.217,1.859.067s-.125-.25-.459-.417a2.769,2.769,0,0,0-1.451-.25,2.435,2.435,0,0,0-1.668.834l-.075.125h.05C335.773,127.311,335.832,127.328,335.865,127.3Z" transform="translate(-281.53 -112.251)" fill="#263238"/><path d="M335.546,135.552c.083,0,.167-.1.183-.25s0-.284-.117-.292-.167.1-.183.25S335.463,135.544,335.546,135.552Z" transform="translate(-281.478 -113.704)" fill="#eb996e"/><path d="M338.4,135.45c.083,0,.142-.142.075-.284s-.192-.2-.259-.15a.292.292,0,0,0,.183.434Z" transform="translate(-281.933 -113.702)" fill="#eb996e"/><path d="M336.858,136.7c.083,0,.142-.092.133-.192a.15.15,0,1,0-.292.017.158.158,0,0,0,.158.175Z" transform="translate(-281.689 -113.924)" fill="#eb996e"/><path d="M353.222,134.892c.075,0,.133-.142.108-.292s-.1-.267-.175-.25-.142.133-.117.283S353.139,134.892,353.222,134.892Z" transform="translate(-284.403 -113.594)" fill="#eb996e"/><path d="M350.337,134.912c.083,0,.142-.1.133-.225s-.075-.217-.158-.217-.15.108-.142.233S350.253,134.912,350.337,134.912Z" transform="translate(-283.927 -113.615)" fill="#eb996e"/><path d="M351.75,135.892c.083,0,.15-.125.15-.267s-.067-.275-.15-.275-.15.117-.15.267S351.667,135.892,351.75,135.892Z" transform="translate(-284.165 -113.761)" fill="#eb996e"/><path d="M342.6,110.352a9.431,9.431,0,0,1-7.947,11.858,3.335,3.335,0,0,0-1.826.525,3.544,3.544,0,0,0-.834,1.943,7.363,7.363,0,0,1-3.594,4.695c2.293,4.286,2.71,11.674-.559,13.95-8.172-4.169-4.436-10.907-5.8-15.443-1.593-5.328.4-10.757,4.394-14.618s10.84-4.686,16.127-2.91" transform="translate(-279.162 -109.459)" fill="#263238"/><path d="M320.459,123.566a9.006,9.006,0,0,0,1.843-5.137,6.529,6.529,0,0,0-2.093-4.953,6.671,6.671,0,0,0-3.594-1.518,8.155,8.155,0,0,0-7.563,3.335,7.73,7.73,0,0,0-.317,8.214,7.346,7.346,0,0,0,7.43,3.335,6.988,6.988,0,0,0,5.537-5.929" transform="translate(-276.872 -109.865)" fill="#263238"/></g><path d="M222.6,154.565l16.627-1.326c.108-1.943,0-9.456,0-9.456s6.921-1.076,7-8-1.117-22.8-1.117-22.8h0a24.024,24.024,0,0,0-24.182,3.035l-1.026.784Z" transform="translate(-134.812 -43.058)" fill="#ffbe9d"/><path d="M241.254,149.68a16.052,16.052,0,0,1-9.014-2.56s2.126,5,9.031,4.353Z" transform="translate(-136.861 -49.055)" fill="#eb996e"/><path d="M247.886,126.2a.984.984,0,0,1-.959.992.942.942,0,0,1-1.017-.884.984.984,0,0,1,.951-1,.951.951,0,0,1,1.026.892Z" transform="translate(-139.132 -45.431)" fill="#263238"/><path d="M247.749,124.842c-.117.125-.834-.425-1.935-.425s-1.834.534-1.951.409.067-.292.409-.542a2.752,2.752,0,0,1,1.568-.484,2.618,2.618,0,0,1,1.534.5C247.7,124.55,247.816,124.8,247.749,124.842Z" transform="translate(-138.786 -45.181)" fill="#263238"/><path d="M235.4,126.5a.984.984,0,0,1-.951.992.942.942,0,0,1-1.017-.884.984.984,0,0,1,.951-1,.942.942,0,0,1,1.017.892Z" transform="translate(-137.058 -45.481)" fill="#263238"/><path d="M235.217,125.074c-.125.133-.834-.425-1.935-.417s-1.843.534-1.96.4.067-.283.409-.534a2.71,2.71,0,0,1,1.568-.484,2.568,2.568,0,0,1,1.543.5C235.167,124.79,235.276,125.024,235.217,125.074Z" transform="translate(-136.703 -45.22)" fill="#263238"/><path d="M240.527,132.971a7.047,7.047,0,0,1,1.726-.309c.275,0,.525-.083.575-.267a1.427,1.427,0,0,0-.183-.834c-.259-.659-.525-1.342-.834-2.068a34.388,34.388,0,0,1-1.8-5.4,35.063,35.063,0,0,1,2.226,5.245c.275.725.525,1.418.775,2.085a1.609,1.609,0,0,1,.142,1.059.692.692,0,0,1-.45.4,2.026,2.026,0,0,1-.459.067A6.93,6.93,0,0,1,240.527,132.971Z" transform="translate(-138.152 -45.229)" fill="#263238"/><path d="M236.845,135.62c.167,0,.175,1.142,1.159,1.968a5.555,5.555,0,0,0,2.226.834c.008.142-.275.225-.792.233a2.843,2.843,0,0,1-1.859-.642,2.5,2.5,0,0,1-.9-1.668C236.637,135.937,236.762,135.612,236.845,135.62Z" transform="translate(-137.597 -47.144)" fill="#263238"/><path d="M235.363,120.13c-.1.284-1.167.15-2.41.3s-2.26.492-2.427.233c-.075-.125.1-.4.509-.675a4.036,4.036,0,0,1,1.793-.634,4.169,4.169,0,0,1,1.893.225C235.18,119.763,235.413,119.989,235.363,120.13Z" transform="translate(-136.573 -44.438)" fill="#263238"/><path d="M247.348,121.134c-.192.242-.926,0-1.8,0s-1.626.167-1.8-.092c-.075-.117.042-.359.367-.592a2.55,2.55,0,0,1,2.943.033C247.29,120.767,247.423,121.017,247.348,121.134Z" transform="translate(-138.769 -44.549)" fill="#263238"/><path d="M218.864,118.884a4.336,4.336,0,0,1-3.077-5.2,6.212,6.212,0,0,1,5.153-10.373,6.771,6.771,0,0,1,12-4.169,5.562,5.562,0,0,1,9.439,5.195,3.019,3.019,0,0,1,4.044,4.478,2.21,2.21,0,0,1,.1,4.311,2.927,2.927,0,0,1-5.6.917,3.1,3.1,0,0,1-4.053,1.918,5.737,5.737,0,0,1-3.235-3.669,2.935,2.935,0,0,1-5,.058,2.86,2.86,0,0,1-2.226,3.669,4.077,4.077,0,1,1-8.139-.509" transform="translate(-133.858 -40.673)" fill="#263238"/><path d="M237.313,125.341a3.99,3.99,0,0,0-.225-1.109,4.561,4.561,0,0,0-1.668-2.435,4.419,4.419,0,1,0,0,7.079,4.561,4.561,0,0,0,1.668-2.435c.192-.692.183-1.109.225-1.1s0,.1,0,.292a3.262,3.262,0,0,1-.092.834,4.6,4.6,0,0,1-1.668,2.643,4.786,4.786,0,0,1-6.771-6.638,4.694,4.694,0,0,1,2.243-1.668,4.77,4.77,0,0,1,4.528.725,4.594,4.594,0,0,1,1.668,2.643,3.335,3.335,0,0,1,.092.834C237.338,125.233,237.329,125.341,237.313,125.341Z" transform="translate(-136.13 -44.637)" fill="#455a64"/><path d="M251.593,125.341a3.989,3.989,0,0,0-.225-1.109A4.561,4.561,0,0,0,249.7,121.8a4.419,4.419,0,1,0,0,7.079,4.561,4.561,0,0,0,1.668-2.435c.192-.692.183-1.109.225-1.1s0,.1,0,.292a3.262,3.262,0,0,1-.092.834,4.6,4.6,0,0,1-1.668,2.643,4.786,4.786,0,0,1-6.771-6.638,4.694,4.694,0,0,1,2.243-1.668,4.77,4.77,0,0,1,4.528.725,4.6,4.6,0,0,1,1.668,2.643,3.337,3.337,0,0,1,.092.834C251.618,125.233,251.609,125.341,251.593,125.341Z" transform="translate(-138.502 -44.637)" fill="#455a64"/><path d="M241.862,125.667c0,.125-.609.217-1.351.217s-1.351-.092-1.351-.217.6-.217,1.351-.217S241.862,125.55,241.862,125.667Z" transform="translate(-138.01 -45.455)" fill="#455a64"/><path d="M227.27,125.443a31.685,31.685,0,0,1-7.38.784,15.576,15.576,0,0,1,3.669-.609,16.135,16.135,0,0,1,3.711-.175Z" transform="translate(-134.809 -45.447)" fill="#455a64"/><path d="M230.907,102.888a.834.834,0,0,1,.359.142,1.668,1.668,0,0,1,.659.9,2.051,2.051,0,0,1-.2,1.743,2.118,2.118,0,0,1-2.151.834,2.5,2.5,0,0,1-2.076-1.868,3.486,3.486,0,0,1,.709-3.152,6.053,6.053,0,0,1,6.954-1.259,5.428,5.428,0,0,1,2.718,2.435,3.177,3.177,0,0,1-.217,3.335l-.242-.309a4.1,4.1,0,0,1,4.611.834,3.452,3.452,0,0,1,.725,3.619,3.152,3.152,0,0,1-1.743,1.709,2.343,2.343,0,0,1-.642.158.918.918,0,0,1-.225,0,7.72,7.72,0,0,0,.834-.275,3.1,3.1,0,0,0,1.568-1.668,3.2,3.2,0,0,0-.75-3.335,3.777,3.777,0,0,0-4.169-.725l-.734.325.5-.634a2.8,2.8,0,0,0,.158-2.935,5.12,5.12,0,0,0-2.5-2.226,5.681,5.681,0,0,0-6.471,1.109,3.144,3.144,0,0,0-.675,2.8,2.235,2.235,0,0,0,1.784,1.668,1.876,1.876,0,0,0,1.9-.667,1.926,1.926,0,0,0,.242-1.559,1.668,1.668,0,0,0-.55-.834C231.032,102.946,230.9,102.913,230.907,102.888Z" transform="translate(-136.053 -41.171)" fill="#455a64"/><path d="M266.4,168.4s6.112,6.354,6.237,23.423c.083,12.324,1.2,27.242,1.2,27.242l-8.447-.684L266.4,168.4" transform="translate(-142.368 -52.59)" fill="#00aec8"/><path d="M196.64,171.533c1.468-4.945,6.754-10.29,14.092-11.674,2.335-.45,4.6-1.293,7.346-1.409h0a29.435,29.435,0,0,0,17.728,0c.725.092,1.718.183,2.977.334,7.7.909,10.657,2.5,16.194,7.972l-.609,31.178s-.267,35.3-.4,41.026l-50.515.183,2.893-33.2" transform="translate(-130.946 -50.937)" fill="#00aec8"/><path d="M289.77,197.782c-3.777,8.389-14.359,30.511-14.359,30.511H218.05a2.668,2.668,0,0,1,2.668-2.668h10.515l12.249-29.61a2.243,2.243,0,0,1,2.076-1.384h42.16a2.243,2.243,0,0,1,2.051,3.152Z" transform="translate(-134.503 -56.948)" fill="#e0e0e0"/><circle cx="1.5" cy="1.5" r="1.5" transform="translate(126 153.382)" fill="#fff"/><path d="M214.238,249.674s7.738,10.131,8.205,11.824c.292,1.042-.4,1.5-1.3.9s-6.271-6.2-6.271-6.2-1.159-.525-.634.284,4.419,7.5,4.753,8.564c.75,2.435-1.067,3.394-2.035,2.168a12.569,12.569,0,0,1-.834-1.1,3.135,3.135,0,0,1-.208,1.668,1.151,1.151,0,0,1-1.668.1c-.484-.7-2.868-4.461-2.969-4.761a6.793,6.793,0,0,0-.575-1,32.777,32.777,0,0,1,.525,4.261c-.092.7-1.318.475-1.918-.625s-2.585-5.487-2.585-5.487-6.212-5.612-6.821-6.913a21.839,21.839,0,0,1-1-2.71l-7.813-4.169,6.454-8.48s14.176,8.839,16.794,11.766" transform="translate(-130.024 -64.154)" fill="#ffbe9d"/></g></svg>