<svg xmlns="http://www.w3.org/2000/svg" width="304.405" height="212.733" viewBox="0 0 304.405 212.733"><g transform="translate(-84.757 -124.496)"><g transform="translate(84.757 241.544)"><path d="M172.209,378.969a13.8,13.8,0,0,1,8.581-1.044,7.135,7.135,0,0,1,4.246,1.89c1.061,1.169,1.258,3.232.042,4.234a4.031,4.031,0,0,1-2.672.68c-2.272,0-4.771-.423-6.6.942-1.038.775-1.723,2.075-2.982,2.457a2.916,2.916,0,0,1-3.214-1.431,4.968,4.968,0,0,1-.364-3.691A5.606,5.606,0,0,1,172.209,378.969Z" transform="translate(-143.469 -343.747)" fill="#00a650"/><path d="M163.3,344.447c1.6,2.278,4.7,1.521,6.142.131s2.022-3.393,2.618-5.337c1.264-4.395,2.54-9,1.6-13.483a7.472,7.472,0,0,0-1.723-3.667,3.912,3.912,0,0,0-3.709-1.234c-1.562.411-2.534,1.944-3.238,3.4a32.143,32.143,0,0,0-3.178,13.793,11.24,11.24,0,0,0,1.509,6.393" transform="translate(-140.549 -320.777)" fill="#00a650"/><path d="M144.549,352.887a8.308,8.308,0,0,0,1.288-7.639,14.732,14.732,0,0,0-4.52-6.56,24.324,24.324,0,0,0-8.1-4.771,8.605,8.605,0,0,0-3.644-.6,3.823,3.823,0,0,0-3.053,1.849c-.853,1.628-.036,3.578.847,5.212a61.725,61.725,0,0,0,5.319,8.1c1.6,2.057,3.423,4.085,5.856,5.015s4.95.817,6.244-.865" transform="translate(-126.156 -325.836)" fill="#00a650"/><path d="M164.1,404.133a5.075,5.075,0,0,0,.143-1.038c.078-.757.167-1.7.274-2.827a41.252,41.252,0,0,1,.638-4.174,31.793,31.793,0,0,1,1.509-4.9,18.032,18.032,0,0,1,2.5-4.431,9.344,9.344,0,0,1,3.161-2.63,8.854,8.854,0,0,1,2.666-.829,4.769,4.769,0,0,0,1.032-.149,4.766,4.766,0,0,0-1.05,0,8.139,8.139,0,0,0-2.779.722,9.362,9.362,0,0,0-3.333,2.654,17.8,17.8,0,0,0-2.594,4.52,30.023,30.023,0,0,0-1.5,4.973,36.315,36.315,0,0,0-.549,4.2c-.089,1.193-.125,2.171-.143,2.844A5.013,5.013,0,0,0,164.1,404.133Z" transform="translate(-141.457 -345.947)" fill="#263238"/><path d="M164.3,383.048a2.164,2.164,0,0,0,0-.483v-1.378c0-1.193,0-2.916.06-5.051.107-4.264.471-8.855,1.193-15.326.674-6.089,1.574-13.173,2.528-17.777.2-1.05.406-1.992.6-2.815s.34-1.539.495-2.117.233-.984.322-1.336a2.5,2.5,0,0,0,.083-.477,1.991,1.991,0,0,0-.167.453c-.107.346-.239.781-.4,1.318s-.358,1.276-.566,2.105-.441,1.759-.668,2.8a155.854,155.854,0,0,0-2.654,16.494c-.71,6.488-1.032,12.392-1.061,16.7,0,2.141,0,3.87.077,5.063.036.561.06,1.014.083,1.377a1.83,1.83,0,0,0,.078.447Z" transform="translate(-141.457 -327.039)" fill="#263238"/><path d="M154.213,374.012a8.574,8.574,0,0,0,0-1.437c-.054-.924-.179-2.26-.441-3.894a51.812,51.812,0,0,0-1.264-5.671,46.839,46.839,0,0,0-2.385-6.709,35.779,35.779,0,0,0-6.941-10.847,17.489,17.489,0,0,0-1.634-1.521c-.256-.215-.477-.423-.7-.6l-.632-.441a10.851,10.851,0,0,0-1.193-.775,44.4,44.4,0,0,1,3.966,3.542,37.742,37.742,0,0,1,6.756,10.806,52.579,52.579,0,0,1,2.385,6.649c.6,2.087,1.038,4,1.348,5.617s.471,2.94.6,3.852A10.3,10.3,0,0,0,154.213,374.012Z" transform="translate(-131.348 -329.392)" fill="#263238"/><path d="M146.04,429.29l1.145,15.636h20.084l1.145-15.636Z" transform="translate(-134.183 -364.58)" fill="#263238"/><rect width="26.71" height="6.16" transform="translate(9.919 58.544)" fill="#263238"/><path d="M142.79,454.51v1.705h26.268V454.51Z" transform="translate(-132.871 -374.761)" fill="#455a64"/><path d="M146.124,460.375l-1.234-3.005h24.056l-1.437,3.005Z" transform="translate(-133.719 -375.915)" fill="#455a64"/><path d="M168.782,429.035c0,.066-5.033.125-11.235.125s-11.247-.06-11.247-.125,5.033-.125,11.247-.125S168.782,428.964,168.782,429.035Z" transform="translate(-134.288 -364.427)" fill="#455a64"/><path d="M169.188,457.565c0,.072-5.474.125-12.219.125s-12.219-.054-12.219-.125,5.468-.125,12.219-.125S169.188,457.5,169.188,457.565Z" transform="translate(-133.662 -375.943)" fill="#263238"/></g><g transform="translate(183.887 124.496)"><path d="M386.6,169.956c-2.618-.262-4.83-2.075-6.482-4.127s-2.9-4.407-4.622-6.393c-1.288-1.479-1.491-4.484-3.393-4.967-2.385-.6-3.542-4.007-3.387-5.963.167-2.123,1.89-4.264,1.837-4.9-.143-1.67-2.057-2.868-2.087-4.544-.072-3.942,2.982-4.484,2.982-4.484.757-2.045,1.789-4.771,4.419-6.518,2.839-1.9,7.233-4.109,10.585-3.441s5.772,1.044,7.752,3.828" transform="translate(-323.1 -124.496)" fill="#263238"/><path d="M419.823,171.676,417.2,185.188l-5.88,12.171-7.842-5.433L400.9,184.6l-2.171-6.142s-8.563,1.723-11.646-6.339c-1.491-3.888-3.9-12.153-6-19.679A16.1,16.1,0,0,1,391,133.021l.781-.286c8.605-2.612,15.636,3.232,18.009,11.927l10.03,27.014" transform="translate(-327.952 -127.568)" fill="#ffbe9d"/><path d="M388.968,173.9a1.24,1.24,0,0,0,1.55.757,1.193,1.193,0,0,0,.805-1.485,1.228,1.228,0,0,0-1.544-.751,1.193,1.193,0,0,0-.811,1.479Z" transform="translate(-331.356 -143.815)" fill="#263238"/><path d="M386.347,169.63c.2.1.835-.877,2.081-1.33s2.385-.167,2.463-.37c.042-.1-.2-.31-.71-.453a3.393,3.393,0,0,0-2.039.107,3.232,3.232,0,0,0-1.586,1.246C386.281,169.266,386.251,169.588,386.347,169.63Z" transform="translate(-330.298 -141.802)" fill="#263238"/><path d="M408.527,166.545a1.234,1.234,0,0,0,1.544.757,1.193,1.193,0,0,0,.811-1.485,1.24,1.24,0,0,0-1.545-.757,1.193,1.193,0,0,0-.811,1.485Z" transform="translate(-339.251 -140.846)" fill="#263238"/><path d="M406.963,161.595c.191.119.93-.781,2.218-1.1s2.385.089,2.487-.1c.054-.083-.167-.328-.656-.525a3.375,3.375,0,0,0-2.039-.113,3.268,3.268,0,0,0-1.717,1.067C406.909,161.225,406.844,161.541,406.963,161.595Z" transform="translate(-338.617 -138.687)" fill="#263238"/><path d="M403.181,175.733a8.746,8.746,0,0,0-2.159.382c-.328.083-.656.131-.787-.066a1.706,1.706,0,0,1-.137-1.02c0-.877.036-1.789.054-2.767a43.449,43.449,0,0,0-.227-7.1,43.524,43.524,0,0,0-.346,7.1v2.767a1.986,1.986,0,0,0,.292,1.312.847.847,0,0,0,.7.268,2.286,2.286,0,0,0,.566-.125A8.6,8.6,0,0,0,403.181,175.733Z" transform="translate(-335.653 -140.911)" fill="#263238"/><path d="M410.438,182.067c-.209.066.286,1.413-.513,2.8s-2.3,1.789-2.236,1.956c0,.089.417.143,1.026-.06a3.578,3.578,0,0,0,1.9-1.562,3.1,3.1,0,0,0,.346-2.314C410.8,182.306,410.527,182.026,410.438,182.067Z" transform="translate(-338.932 -147.734)" fill="#263238"/><path d="M404.663,154.7c.221.316,1.449-.2,2.982-.435s2.874-.155,2.982-.525c.048-.173-.25-.441-.835-.644a5.26,5.26,0,0,0-4.562.733C404.764,154.205,404.561,154.551,404.663,154.7Z" transform="translate(-337.701 -135.949)" fill="#263238"/><path d="M385.318,163.926c.328.2,1.073-.405,2.1-.8s1.974-.513,2.069-.883c.03-.173-.209-.406-.692-.531a3.25,3.25,0,0,0-3.351,1.354C385.187,163.491,385.175,163.825,385.318,163.926Z" transform="translate(-329.865 -139.492)" fill="#263238"/><path d="M394.619,129.764a6.56,6.56,0,0,1-5.152,8.647c-1.467.227-3.22.06-4.174,1.193s-.376,3.113-1.151,4.467c-1.109,1.938-4.085,1.527-5.9,2.827-1.4,1.008-1.849,2.839-2.445,4.449s-1.729,3.351-3.453,3.429a19.588,19.588,0,0,1-.835-4.371,6.56,6.56,0,0,1,1.193-4.21c.495-.644,1.157-1.163,1.586-1.855.93-1.5.6-3.417.883-5.158a7.156,7.156,0,0,1,3.96-5.212c1.712-.8,3.721-.906,5.3-1.944,1.163-.769,1.992-1.992,3.2-2.689,2.356-1.36,5.331-.37,7.788.793" transform="translate(-324.323 -126.184)" fill="#263238"/><path d="M398.812,135.013c1.02-.716,3.077-2.254,3.339-3.447a7.356,7.356,0,0,1,4.806-5.552,6.041,6.041,0,0,1,6.709,2.713A8.688,8.688,0,0,1,422.3,130.8a10.054,10.054,0,0,1,2.833,8.945,4.989,4.989,0,0,0-.161,2.5c.334,1.008,1.354,1.544,2.171,2.189a9.069,9.069,0,0,1,2.952,7.752c-.244,2.845-.722,3.989-2.117,5.033-2.743,2.039,3.143,6.876-1.974,8.665L417.9,148.2a2.141,2.141,0,0,1-.417.346c-2.791,1.741-5.254-4.037-5.17-5.963a18.773,18.773,0,0,1-4.174-2.135,13.405,13.405,0,0,1-3.53-5.635C403.553,135.24,398.371,135.329,398.812,135.013Z" transform="translate(-335.339 -125.028)" fill="#263238"/><path d="M430.2,162.945c.113-.113,4.956-3.7,6.816,1.9s-4.145,6.321-4.2,6.16S430.2,162.945,430.2,162.945Z" transform="translate(-348.02 -139.519)" fill="#ffbe9d"/><path d="M435.616,169.529a1.757,1.757,0,0,0,.31.054.99.99,0,0,0,.733-.227,2.523,2.523,0,0,0,.4-2.534,3.327,3.327,0,0,0-.739-1.306,1.193,1.193,0,0,0-.984-.507.519.519,0,0,0-.483.459c0,.179.048.28,0,.3s-.155-.054-.185-.3a.662.662,0,0,1,.1-.423.793.793,0,0,1,.495-.322,1.443,1.443,0,0,1,1.306.531,3.476,3.476,0,0,1,.859,1.449,2.71,2.71,0,0,1-.6,2.892,1.121,1.121,0,0,1-.942.149C435.67,169.654,435.6,169.547,435.616,169.529Z" transform="translate(-349.822 -140.729)" fill="#eb996e"/><path d="M411.05,205.164a20.09,20.09,0,0,0,9.452-6.894s-.346,6.75-8.694,9Z" transform="translate(-340.289 -154.276)" fill="#eb996e"/><path d="M408.68,137.536a33.691,33.691,0,0,0,9,.6c4.979-.34,5.665-3.095,7.275-5.713a8.462,8.462,0,0,1,4.025,5.767s-2.815,8.009-12.672,7.049C416.307,145.235,409.121,143.243,408.68,137.536Z" transform="translate(-339.333 -127.694)" fill="#263238"/><path d="M433.8,152.788c.149.131-.221.894-1.252,1.759a8.551,8.551,0,0,1-9.9.6c-1.127-.733-1.58-1.449-1.449-1.6s.829.209,1.95.6a10.37,10.37,0,0,0,8.8-.519C433,153.092,433.635,152.627,433.8,152.788Z" transform="translate(-344.376 -135.903)" fill="#263238"/><path d="M385.381,408.649l.811,20.526s-20.6,7.717-20.812,11.521l39.853-.131.054-32.035Z" transform="translate(-321.854 -239.152)" fill="#3a3b39"/><path d="M578,438.029l20.317-3.041s9.911,19.631,13.716,19.434l-4.484-39.6L575.7,418.261Z" transform="translate(-406.754 -241.691)" fill="#3a3b39"/><path d="M360.013,268.25l28.6,6.882-8.76,17.717L354.36,278.4Z" transform="translate(-317.405 -182.525)" fill="#ffbe9d"/><path d="M337.73,260.306l-4.89-.936-6.709,3.161-2.844,6.321a2.23,2.23,0,0,0,.429,2.463c1.193,1.264,3.19,3.178,4.216,3.339a2.457,2.457,0,0,0,2.236,2.326s-.6,1.026,1.819,1.413,10.042-1.026,10.042-1.026.447-1.33-1.634-2.982l2.487-2s-.149-1.586-2.475-1.986l2.493-4.091Z" transform="translate(-304.783 -178.94)" fill="#523b5d"/><path d="M350.312,276.937l8.378,5.087,6.834-13.793-10.507-3.84-6.327,12.255Z" transform="translate(-315.117 -180.967)" fill="#523b5d"/><path d="M315.214,260.864l-.555,1.485-17.466-6.577-2.165-.561-.978-.835.7-1.336,1.157.143,1.884,1.2Z" transform="translate(-293.06 -176.385)" fill="#e0e0e0"/><path d="M332.11,281.817a50.025,50.025,0,0,0,10.108-2.385,4.769,4.769,0,0,0,1.193-.555,1.837,1.837,0,0,0,.769-1.1" transform="translate(-308.424 -186.372)" fill="#523b5d"/><path d="M343.367,273.916l-15.457-5.749,1.6-4.317,15.457,5.749a2.3,2.3,0,0,1,1.354,2.982h0A2.3,2.3,0,0,1,343.367,273.916Z" transform="translate(-306.728 -180.749)" fill="#455a64"/><path d="M350.4,264.5a67.564,67.564,0,0,0-6.87-5.45,6.762,6.762,0,0,0-4.8-.865c-1.091.268-9.2,6.13-9.2,6.13a3.2,3.2,0,0,0,3.483,1.628,6.882,6.882,0,0,0,4.174-1.89,4.943,4.943,0,0,0,3.834,3.518C344.844,268.557,350.4,264.5,350.4,264.5Z" transform="translate(-307.382 -178.413)" fill="#523b5d"/><path d="M336.847,259.91a3.427,3.427,0,0,1-.549.435l-1.58,1.145-5.534,3.876.03-.209a3.87,3.87,0,0,0,1.6,1.157,4.293,4.293,0,0,0,2.105.2,8.307,8.307,0,0,0,3.894-1.819l.167-.137.066.2a5.367,5.367,0,0,0,4.9,3.673,5.748,5.748,0,0,0,1.872-.244,6.338,6.338,0,0,1,.656-.215.8.8,0,0,1-.155.1,3.583,3.583,0,0,1-.471.209,5.424,5.424,0,0,1-4.747-.489,5.647,5.647,0,0,1-2.338-2.94l.233.066a8.348,8.348,0,0,1-4.037,1.9,4.5,4.5,0,0,1-2.254-.215,4.05,4.05,0,0,1-1.729-1.258l-.1-.125.137-.089c2.236-1.521,4.174-2.827,5.6-3.793l1.628-1.073A3.333,3.333,0,0,1,336.847,259.91Z" transform="translate(-307.12 -179.158)" fill="#263238"/><path d="M420.53,203.783s2.677-8.349,7.693-9.017,10.966-.453,15.033,1.032c7.335,2.683,38,35.112,38,35.112s9.321,12.6,6.232,17.52L461.677,258.2H439.893s-15.827-20.734-15.5-21.253S420.53,203.783,420.53,203.783Z" transform="translate(-344.116 -152.716)" fill="#fff"/><path d="M474.61,343.11s.757,51.964,2.523,56.252,4.037,7.567,11.6,9.082,64.326-2.522,64.326-2.522l-2.773-25.445-40.443-3.709s-.173-11.426.078-16.727,6.172-15.218,6.923-27.062S474.61,343.11,474.61,343.11Z" transform="translate(-365.947 -207.239)" fill="#523b5d"/><g transform="translate(108.896 144.994)" opacity="0.3"><path d="M475.03,369.548l-.03.215a23.108,23.108,0,0,0,15.26,4.771,26.113,26.113,0,0,0,15.576-6.894C496.176,370.389,485.048,370.276,475.03,369.548Z" transform="translate(-475 -367.64)"/></g><path d="M435.69,273.41l31.874,15.3,25.762-11.891s4.818,5.695,5.76,8.062,1.258,10.448,1.258,10.448L467.2,299.637H438.606l-5.176-8.784Z" transform="translate(-349.324 -184.608)" fill="#523b5d"/><path d="M475.724,300.765c-3.029-3.53-44.021,3.882-44.021,3.882s-40.616,1.789-46.669,2.779-11.724,11.533-11.724,17.836,5.427,54.129,5.427,54.129l34.343-3.495c-.25-4.538-3.811-37.193-3.811-37.193s31.528,5.552,39.6,4.538,21.468-10.09,24.45-14.378S478.747,304.3,475.724,300.765Z" transform="translate(-325.055 -195.265)" fill="#523b5d"/><path d="M436.269,305.459s49.877-6.458,65.495,5.367c0,0,2.916-6.733-1.336-10.173S434.51,302.5,434.51,302.5Z" transform="translate(-349.76 -195.135)" fill="#aea8a8"/><path d="M503.736,305.59l-.99,26.662a8.17,8.17,0,0,0,7.836,8.462l11.956.477a8.158,8.158,0,0,0,8.468-7.532c.656-8.539,1.24-21.82-.727-28.069Z" transform="translate(-377.302 -197.598)" fill="#aea8a8"/><path d="M387.509,245.69s-6.941,11.652-6.953,18.969L347.68,280.671l3.5,9.613s39.048-4.651,41.7-6.071,9.613-7.156,11.575-11.587,5.081-17.777,5.081-17.777Z" transform="translate(-314.709 -173.418)" fill="#ffbe9d"/><path d="M411.421,278.593c-.03.042-.447-.256-1.193-.6a10.442,10.442,0,0,0-3.029-.948,10.275,10.275,0,0,0-3.172,0c-.805.137-1.294.3-1.306.25a3.625,3.625,0,0,1,1.264-.465,8.909,8.909,0,0,1,3.262-.119,8.748,8.748,0,0,1,3.083,1.067A3.525,3.525,0,0,1,411.421,278.593Z" transform="translate(-336.927 -185.903)" fill="#eb996e"/><path d="M300.81,297.76l-8.42,9.333,25.589,5.427-.441-11.527Z" transform="translate(-292.39 -194.437)" fill="#455a64"/><path d="M334.774,300.734s-4.914-1.193-7.281-.966-13.084,2.6-13.084,2.6-.823,1.932,1.855,2.755a14.557,14.557,0,0,0,6.285,0s-6.6,5.254-6.7,5.665-.924,1.342.1,2.063,4.121,0,4.121,0,0,2.266.93,2.88,1.747,1.133,1.747,1.133a9.6,9.6,0,0,0,2.677,2.063c1.026.31,3.095.722,3.095.722h3.089l8.349-7.055,7.192-1.55-4.58-13.924Z" transform="translate(-301.23 -194.179)" fill="#523b5d"/><path d="M426.665,199s-9.977,2.612-11.927,7.031-8.1,26.06-8.1,26.06l26.71,9.428s3.435-15.373,4.908-21.259S444.334,203.085,426.665,199Z" transform="translate(-338.509 -154.571)" fill="#fff"/><path d="M390.217,255.54a.992.992,0,0,1-.1.245l-.322.692c-.28.6-.692,1.479-1.151,2.606a31.05,31.05,0,0,0-2.236,9.541v.084l-.078.036-6.035,2.916c-5.087,2.493-9.678,4.771-13.024,6.357-1.67.805-3.035,1.437-3.977,1.867l-1.091.489a1.868,1.868,0,0,1-.388.149,1.7,1.7,0,0,1,.364-.209l1.067-.537,3.93-1.956,12.982-6.434c2.123-1.038,4.174-2.022,6.047-2.9l-.084.119a29.9,29.9,0,0,1,2.385-9.613c.483-1.121.924-1.992,1.228-2.582l.364-.668A1.187,1.187,0,0,1,390.217,255.54Z" transform="translate(-320.417 -177.394)" fill="#eb996e"/></g><g transform="translate(143.795 203.667)"><rect width="18.713" height="18.713" transform="translate(0 0.012)" fill="#455a64"/><path d="M242.992,268.684a13.709,13.709,0,0,0-.25-1.515,6.249,6.249,0,0,0-2.278-3.363,6.094,6.094,0,0,0-5.79-.853,5.963,5.963,0,0,0-2.827,2.129,6.053,6.053,0,0,0,0,7.2,5.767,5.767,0,0,0,1.282,1.3,5.708,5.708,0,0,0,1.544.829,6.1,6.1,0,0,0,5.79-.853,6.237,6.237,0,0,0,2.278-3.363,14.023,14.023,0,0,0,.25-1.509,4.848,4.848,0,0,1-.137,1.538,6.308,6.308,0,0,1-8.283,4.455,5.964,5.964,0,0,1-1.616-.859,6.124,6.124,0,0,1-1.36-1.36,6.357,6.357,0,0,1,0-7.561,6.228,6.228,0,0,1,1.36-1.354,5.964,5.964,0,0,1,1.616-.859,6.308,6.308,0,0,1,8.283,4.455A4.884,4.884,0,0,1,242.992,268.684Z" transform="translate(-227.255 -259.298)" fill="#263238"/><path d="M237.388,272.044a1.008,1.008,0,1,1-.293-.716A1.014,1.014,0,0,1,237.388,272.044Z" transform="translate(-229.277 -262.819)" fill="#263238"/><path d="M245.628,272.044a1.008,1.008,0,1,1-.293-.716A1.014,1.014,0,0,1,245.628,272.044Z" transform="translate(-232.604 -262.819)" fill="#263238"/><path d="M229.415,285.037a.883.883,0,1,1-.877-.877.882.882,0,0,1,.877.877Z" transform="translate(-226.165 -268.119)" fill="#e0e0e0"/><path d="M229.265,284.867c.03.084-.155.227-.328.441s-.286.417-.376.4-.1-.322.137-.6S229.241,284.79,229.265,284.867Z" transform="translate(-226.51 -268.391)" fill="#263238"/><path d="M229.185,285.578c-.083.03-.227-.155-.453-.31s-.441-.233-.441-.322.316-.149.626.072S229.268,285.542,229.185,285.578Z" transform="translate(-226.423 -268.403)" fill="#263238"/><path d="M253.875,285.037a.883.883,0,1,1-.883-.877.883.883,0,0,1,.883.877Z" transform="translate(-236.039 -268.119)" fill="#e0e0e0"/><path d="M253.725,284.867c0,.084-.155.227-.328.441s-.286.417-.376.4-.1-.322.137-.6S253.7,284.79,253.725,284.867Z" transform="translate(-236.384 -268.391)" fill="#263238"/><path d="M253.645,285.578c-.083.03-.227-.155-.453-.31s-.441-.233-.441-.322.316-.149.6.072S253.728,285.542,253.645,285.578Z" transform="translate(-236.297 -268.403)" fill="#263238"/><path d="M253.875,259.633a.883.883,0,1,1-.883-.883A.883.883,0,0,1,253.875,259.633Z" transform="translate(-236.039 -257.861)" fill="#e0e0e0"/><path d="M253.725,259.465c0,.078-.155.227-.328.435s-.286.417-.376.4-.1-.322.137-.6S253.7,259.381,253.725,259.465Z" transform="translate(-236.384 -258.135)" fill="#263238"/><path d="M253.645,260.179c-.083,0-.227-.161-.453-.31s-.441-.239-.441-.322.316-.149.6.066S253.728,260.155,253.645,260.179Z" transform="translate(-236.297 -258.151)" fill="#263238"/><path d="M229.405,259.633a.877.877,0,1,1-.255-.624.883.883,0,0,1,.255.624Z" transform="translate(-226.161 -257.861)" fill="#e0e0e0"/><path d="M229.255,259.465c0,.078-.155.227-.328.435s-.286.417-.376.4-.1-.322.137-.6S229.231,259.381,229.255,259.465Z" transform="translate(-226.506 -258.135)" fill="#263238"/><path d="M229.174,260.179c-.083,0-.227-.161-.447-.31s-.447-.239-.447-.322.316-.149.626.066S229.258,260.155,229.174,260.179Z" transform="translate(-226.419 -258.151)" fill="#263238"/><rect width="18.713" height="18.713" transform="translate(21.116 0.012)" fill="#263238"/><path d="M265.734,257.28a4.573,4.573,0,0,0,.2.531,4.712,4.712,0,0,0,1.026,1.258,24.9,24.9,0,0,0,5.039,3.31c1.127.6,2.385,1.228,3.739,1.872l2.111.984a15.1,15.1,0,0,1,2.206,1.163,8.074,8.074,0,0,1,3.345,4.121,6.876,6.876,0,0,1-5.206,8.909,8.7,8.7,0,0,1-5.26-.787,14.6,14.6,0,0,1-3.93-2.809c-1.1-1.05-2.016-2.111-2.856-3.077-1.7-1.908-3.161-3.381-4.121-4.443-.483-.525-.859-.942-1.1-1.228l-.274-.328a.558.558,0,0,1-.083-.119s.042,0,.107.1l.3.31,1.145,1.193c.99,1.038,2.469,2.481,4.174,4.383.859.954,1.789,2,2.868,3.035a14.532,14.532,0,0,0,3.876,2.731,8.444,8.444,0,0,0,5.081.751,6.56,6.56,0,0,0,4.973-8.516,7.752,7.752,0,0,0-3.184-3.966,14.756,14.756,0,0,0-2.159-1.151l-2.111-1c-1.354-.656-2.606-1.294-3.733-1.908a23.852,23.852,0,0,1-5.015-3.417,4.526,4.526,0,0,1-1-1.324,1.671,1.671,0,0,1-.125-.411A.442.442,0,0,1,265.734,257.28Z" transform="translate(-239.454 -257.268)" fill="#455a64"/><path d="M273.153,257.28a2.136,2.136,0,0,1-.191.555,6.663,6.663,0,0,1-.811,1.389,8.414,8.414,0,0,1-4.371,2.916,7.931,7.931,0,0,1-2.934.1,11.835,11.835,0,0,1-2.314-.6,9.726,9.726,0,0,1-1.467-.644,1.789,1.789,0,0,1-.495-.316c0-.048.757.358,2.034.751a13.2,13.2,0,0,0,2.278.495,8.129,8.129,0,0,0,2.821-.125,8.652,8.652,0,0,0,4.276-2.749A17.986,17.986,0,0,0,273.153,257.28Z" transform="translate(-239.454 -257.268)" fill="#455a64"/><path d="M267.513,265.77h-.6a19.373,19.373,0,0,1-6.756-2l.495-1.085a18.432,18.432,0,0,0,6.321,1.9,8.6,8.6,0,0,0,5.88-1.717,5.719,5.719,0,0,0,2.117-5.367l1.193-.239a6.846,6.846,0,0,1-2.534,6.518A9.613,9.613,0,0,1,267.513,265.77Z" transform="translate(-239.288 -257.26)" fill="#455a64"/><path d="M269.2,257.28a2.288,2.288,0,0,1-.262.429,5.067,5.067,0,0,1-1.038,1.02,22.376,22.376,0,0,1-1.944,1.193,8.546,8.546,0,0,0-2.3,1.884,4.734,4.734,0,0,0-.865,1.479,2.839,2.839,0,0,0-.048,1.789,3.688,3.688,0,0,0,3.107,2.278,10.454,10.454,0,0,0,4.484-.751,9.947,9.947,0,0,1,4.967-.692,4.234,4.234,0,0,1,2.266,1.252,2.9,2.9,0,0,1,.817,2.385,3.667,3.667,0,0,1-1.193,2.123,7.847,7.847,0,0,1-1.914,1.294,16.524,16.524,0,0,1-7.7,1.61,17.514,17.514,0,0,1-5.236-.906,13.59,13.59,0,0,1-1.348-.543,4.182,4.182,0,0,1-.447-.227,2.647,2.647,0,0,1,.471.167c.3.131.763.292,1.36.483a18.158,18.158,0,0,0,5.206.811,16.6,16.6,0,0,0,7.561-1.652,7.477,7.477,0,0,0,1.837-1.252,3.364,3.364,0,0,0,1.091-1.95,2.594,2.594,0,0,0-.745-2.123,3.983,3.983,0,0,0-2.1-1.157,9.948,9.948,0,0,0-4.812.68,10.878,10.878,0,0,1-4.622.739,4.652,4.652,0,0,1-2.057-.811,3.232,3.232,0,0,1-1.252-1.67,3.1,3.1,0,0,1,.066-1.95,4.932,4.932,0,0,1,.918-1.539,8.766,8.766,0,0,1,2.385-1.9c.781-.441,1.455-.793,1.962-1.157A6.029,6.029,0,0,0,269.2,257.28Z" transform="translate(-239.446 -257.268)" fill="#455a64"/><path d="M292.827,264.277a4.175,4.175,0,0,1-.8.286,11.784,11.784,0,0,1-2.272.429,15.993,15.993,0,0,1-7.5-1.193,21.319,21.319,0,0,1-6.351-4.174c-.71-.668-1.246-1.246-1.6-1.658a4.231,4.231,0,0,1-.525-.668,5.412,5.412,0,0,1,.6.6c.382.388.936.936,1.664,1.58a22.7,22.7,0,0,0,6.321,4.067,16.614,16.614,0,0,0,7.359,1.264A23.712,23.712,0,0,0,292.827,264.277Z" transform="translate(-244.786 -257.276)" fill="#455a64"/><path d="M308.864,265a4.264,4.264,0,0,1-2.815,2.218c-.036-.083.7-.429,1.461-1.044S308.792,264.925,308.864,265Z" transform="translate(-257.812 -260.381)" fill="#ff725e"/><path d="M309.9,269.711a13.72,13.72,0,0,0-1.938-.793,12.375,12.375,0,0,0-2.081-.173,2.982,2.982,0,0,1,2.153-.131,3.059,3.059,0,0,1,1.867,1.1Z" transform="translate(-257.744 -261.786)" fill="#ff725e"/><path d="M307.608,272.026c-.042,0,.083-.233.125-.6a2.075,2.075,0,0,0-.352-1.342,3.531,3.531,0,0,0-1.067-.96c-.322-.2-.537-.316-.525-.358s.262,0,.6.161a2.917,2.917,0,0,1,1.222.984,1.974,1.974,0,0,1,.31,1.55C307.841,271.883,307.632,272.05,307.608,272.026Z" transform="translate(-257.708 -261.9)" fill="#ff725e"/></g></g></svg>