<svg xmlns="http://www.w3.org/2000/svg" width="315.251" height="273.815" viewBox="0 0 315.251 273.815"><g transform="translate(-204.612 -140.223)"><g transform="matrix(0.998, -0.07, 0.07, 0.998, 355.851, 221.683)"><rect width="101.848" height="156.624" rx="7.54" transform="translate(0 101.578) rotate(-85.83)" fill="#5e94ff"/><path d="M579.54,252.614a9.8,9.8,0,1,1-2.347-7.15,9.808,9.808,0,0,1,2.347,7.15Z" transform="translate(-441.043 -219.899)" fill="#fff"/><path d="M583.144,263.135h-.754a10.255,10.255,0,1,1,10.975-9.483h0A10.273,10.273,0,0,1,583.144,263.135Zm0-19.625a9.369,9.369,0,1,0,9.343,9.975h0a9.4,9.4,0,0,0-8.668-10.036Z" transform="translate(-439.996 -219.88)" fill="#fff"/><path d="M455.35,287.857l-.579,7.9-.807-.061.518-7.15-1.851-.132.053-.719Z" transform="translate(-440.354 -221.38)" fill="#fff"/><path d="M463.581,295.662l-.053.719-5.518-.4v-.57l3.509-2.965c.947-.807,1.158-1.325,1.193-1.869.07-.877-.526-1.518-1.755-1.605a2.685,2.685,0,0,0-2.211.719l-.544-.535a3.509,3.509,0,0,1,2.869-.877c1.6.114,2.553,1,2.456,2.316a3.241,3.241,0,0,1-1.474,2.369l-2.869,2.43Z" transform="translate(-441.014 -221.388)" fill="#fff"/><path d="M472.953,295.011l-1.57-.114-.149,2.07-.833-.07.149-2.062-4.439-.325.044-.588,4.544-4.913.877.07-4.386,4.781,3.413.254.132-1.825.79.061-.132,1.816,1.641.1Z" transform="translate(-439.435 -221.421)" fill="#fff"/><path d="M486.705,296.012l-1.57-.114-.149,2.07-.816-.061.158-2.062-4.448-.325.044-.588,4.553-4.913.877.07-4.386,4.79,3.413.246.132-1.825.789.061-.132,1.816,1.57.114Z" transform="translate(-439.837 -221.448)" fill="#fff"/><path d="M494.721,296.315c-.105,1.342-1.114,2.316-3.035,2.176a4.071,4.071,0,0,1-2.746-1.211l.439-.614a3.456,3.456,0,0,0,2.351,1.088c1.342.1,2.1-.509,2.167-1.465s-.509-1.684-2.509-1.834l-1.676-.114.684-3.921,4.307.316-.053.719-3.6-.263-.447,2.491,1.009.07C493.984,293.929,494.818,294.929,494.721,296.315Z" transform="translate(-440.136 -221.449)" fill="#fff"/><path d="M503.585,296.943a2.465,2.465,0,0,1-2.869,2.219c-2.088-.149-3.123-1.684-2.939-4.167.193-2.632,1.755-3.965,3.9-3.807a3.685,3.685,0,0,1,1.834.561l-.368.632a2.807,2.807,0,0,0-1.509-.483c-1.693-.123-2.869.877-3.018,3.027v.64a2.518,2.518,0,0,1,2.509-1.176,2.4,2.4,0,0,1,2.465,2.553Zm-.807,0c.079-1.035-.64-1.755-1.851-1.842a1.825,1.825,0,0,0-2.149,1.57c-.061.877.6,1.755,1.956,1.842a1.755,1.755,0,0,0,2.044-1.605Z" transform="translate(-440.397 -221.473)" fill="#fff"/><path d="M515.851,297.911c-.1,1.316-1.123,2.255-3.018,2.114a4.1,4.1,0,0,1-2.763-1.211l.439-.614a3.509,3.509,0,0,0,2.377,1.088c1.3.1,2.062-.465,2.132-1.439s-.544-1.614-2.009-1.755h-.561l.044-.6,2.377-2.579-4.018-.289.053-.719,5.053.368v.57l-2.439,2.649C515.167,295.7,515.948,296.647,515.851,297.911Z" transform="translate(-440.761 -221.484)" fill="#fff"/><path d="M524.855,298.493a2.465,2.465,0,0,1-2.869,2.22c-2.088-.149-3.114-1.684-2.939-4.167.193-2.676,1.755-3.965,3.9-3.807a3.6,3.6,0,0,1,1.833.561l-.368.632a2.807,2.807,0,0,0-1.509-.482c-1.693-.123-2.86.877-3.018,3.018v.649a2.518,2.518,0,0,1,2.509-1.176,2.4,2.4,0,0,1,2.465,2.553Zm-.807,0c.079-1.035-.64-1.755-1.851-1.842a1.825,1.825,0,0,0-2.149,1.57c-.061.877.6,1.755,1.956,1.842a1.755,1.755,0,0,0,2.044-1.605Z" transform="translate(-441.03 -221.513)" fill="#fff"/><path d="M533.553,293.551v.57l-3.842,7.062-.877-.07,3.755-6.913-4.044-.29-.105,1.474-.8-.061.158-2.193Z" transform="translate(-441.282 -221.521)" fill="#fff"/><path d="M546.369,294.485l-.044.57-3.825,7.018-.877-.061,3.763-6.913-4.044-.3-.114,1.474-.8-.061.167-2.193Z" transform="translate(-441.66 -221.544)" fill="#fff"/><path d="M554.706,300.824c-.105,1.395-1.342,2.176-3.22,2.035s-2.974-1.088-2.877-2.483a1.974,1.974,0,0,1,1.658-1.825,1.754,1.754,0,0,1-1.105-1.816c.088-1.281,1.237-2,2.9-1.877s2.719,1,2.632,2.281a1.754,1.754,0,0,1-1.386,1.641A1.983,1.983,0,0,1,554.706,300.824Zm-.833-.07c.07-.974-.719-1.641-2.114-1.755s-2.255.447-2.325,1.412.7,1.64,2.1,1.755S553.8,301.727,553.873,300.753Zm-2.062-2.377c1.219.088,1.991-.412,2.062-1.263s-.675-1.483-1.86-1.57-1.983.395-2.044,1.272.614,1.474,1.842,1.562Z" transform="translate(-441.891 -221.567)" fill="#fff"/><path d="M563.607,299.642c-.193,2.632-1.755,3.965-3.9,3.807a3.711,3.711,0,0,1-1.834-.561l.377-.632a2.772,2.772,0,0,0,1.5.483c1.693.123,2.869-.877,3.027-3.018v-.649a2.509,2.509,0,0,1-2.5,1.176,2.386,2.386,0,0,1-2.483-2.553,2.456,2.456,0,0,1,2.86-2.22C562.756,295.624,563.791,297.16,563.607,299.642Zm-1-1.641c.07-.877-.6-1.755-1.956-1.842a1.755,1.755,0,0,0-2.044,1.57c-.079,1.035.64,1.755,1.851,1.842a1.825,1.825,0,0,0,2.149-1.57Z" transform="translate(-442.184 -221.583)" fill="#fff"/><path d="M573.46,296.455l-.57,7.9-.816-.061.526-7.15-1.86-.14.053-.719Z" transform="translate(-442.832 -221.601)" fill="#fff"/><path d="M581.691,304.265l-.053.719-5.518-.4V304l3.509-2.965c.956-.807,1.158-1.325,1.2-1.86.07-.877-.535-1.526-1.755-1.614a2.719,2.719,0,0,0-2.211.719l-.535-.535a3.509,3.509,0,0,1,2.869-.921c1.6.123,2.544,1,2.456,2.316a3.272,3.272,0,0,1-1.474,2.369l-2.816,2.483Z" transform="translate(-440.393 -221.605)" fill="#fff"/><path d="M589.84,303.3c-.1,1.316-1.132,2.255-3.027,2.114a4.071,4.071,0,0,1-2.763-1.219l.447-.605a3.51,3.51,0,0,0,2.369,1.088c1.307.088,2.07-.465,2.141-1.439s-.553-1.614-2.009-1.755l-.561-.044.044-.588,2.377-2.579-4.027-.289.053-.719,5.062.368v.57l-2.43,2.632C589.147,301.085,589.928,302.032,589.84,303.3Z" transform="translate(-441.367 -221.619)" fill="#fff"/><rect width="3.43" height="63.208" transform="matrix(0.073, -0.997, 0.997, 0.073, 87.127, 89.828)" fill="#fff"/><rect width="3.43" height="32.416" transform="matrix(0.073, -0.997, 0.997, 0.073, 117.339, 100.731)" fill="#fff"/><g transform="translate(10.625 37.272)" opacity="0.5"><rect width="26.52" height="19.809" rx="4.96" transform="translate(1.441 0) rotate(4.17)"/></g><path d="M451.22,272.368l.1-1.263,13.624.991a2.86,2.86,0,0,0,.412-5.7l-13.624-.991.1-1.272,13.615.991a4.132,4.132,0,1,1-.6,8.238Z" transform="translate(-440.181 -220.717)" fill="#fb9300"/><rect width="1.272" height="9.369" transform="translate(31.493 49.58) rotate(-85.78)" fill="#fb9300"/><rect width="68.209" height="5.851" transform="translate(16.387 18.904) rotate(4.17)" fill="#fff"/></g><g transform="translate(204.612 140.223)"><path d="M303.452,168c-.114.307-2.772,24.66-2.772,24.66l10.273-1.851,2.632-20.125Z" transform="translate(-216.401 -156.454)" fill="#455a64"/><path d="M300.572,192.6l-.772-.456,2.334-24.538,1.176.333Z" transform="translate(-216.293 -156.406)" fill="#263238"/><circle cx="0.474" cy="0.474" r="0.474" transform="translate(91.49 14.809)" fill="#263238"/><path d="M292.65,206.806l19.7,5.123-3.009-24.485h0l-.4-1.114-7.211-1.114.877-5.334a4.386,4.386,0,0,1,5.387-3.421l2.369.632a6.141,6.141,0,0,1,3.9,3.141c1.369,2.684,2.711,5.615,2.579,5.36h0l10.571,28.67a10.834,10.834,0,0,1-1.176,11.554c-3.4,4.386-11.624,1.342-15.5.6L285.5,220.852Z" transform="translate(-214.538 -157.476)" fill="#ffbe9d"/><path d="M207.918,253.647a13.493,13.493,0,0,1,.061-17.765l21.537-24.432,5.764,16.124c-.395.263-16.774,17.818-16.774,17.818l14.037,17.546a10.08,10.08,0,0,1,1.667,9.6l-.632,2.588a6.2,6.2,0,0,1-8.571,4.176l-3.957-1.755a.877.877,0,0,1-.36-1.219h0a.825.825,0,0,1,.7-.386h5.36a2.43,2.43,0,0,0,2.369-1.851h0Z" transform="translate(-204.612 -161.786)" fill="#ffbe9d"/><path d="M217,246.57a7.9,7.9,0,0,1,1.886,1.605,5.316,5.316,0,0,1,1.509,1.983,9.578,9.578,0,0,1-1.834-1.658A6.228,6.228,0,0,1,217,246.57Z" transform="translate(-206.132 -166.096)" fill="#9b4e3d"/><path d="M222.85,431.719s22.116-70.27,22.59-72.551c.421-2.062-8.027-52.637-9.1-65.717l29.9,1.114v.246l12.712.7-11.4,143.717H253.809l1.369-47.68a459.616,459.616,0,0,1-20.642,45.978Z" transform="translate(-206.85 -171.849)" fill="#ffbe9d"/><path d="M259.06,420.128c0-.439.167-15.975.167-15.975s6.071-17.283,6.194-16.844S259.06,420.128,259.06,420.128Z" transform="translate(-211.294 -183.366)" fill="#9b4e3d"/><path d="M243.564,169.773c-1.588-2.193-5.185-2.044-7.211-.246s-2.728,4.676-2.807,7.387c-.07,2.518.105,5.518-1.921,7.018a21.928,21.928,0,0,1-2.755,1.3,5.027,5.027,0,0,0-2.544,4.386c0,1.333.544,2.878-.342,3.9a6.5,6.5,0,0,1-1.7,1.07,5.264,5.264,0,0,0-2.167,4.922,9.562,9.562,0,0,0,1.246,4.237s14.194-.14,20.651,0c0,0-.114-22.757-.447-33.968" transform="translate(-206.755 -156.473)" fill="#fb9300"/><path d="M270.624,197.744c-.044-1.6.43-7.948.43-7.948s5.922-.579,6.343-6.588.2-19.879.2-19.879l-10.7-5.518L255,166.89l1.193,30.915Z" transform="translate(-210.795 -155.204)" fill="#ffbe9d"/><path d="M279.1,175.5a.746.746,0,0,1-.754.754.772.772,0,0,1,0-1.535.754.754,0,0,1,.754.781Z" transform="translate(-213.575 -157.279)" fill="#263238"/><path d="M279.723,174.527c-.1.1-.649-.395-1.456-.447s-1.412.342-1.5.228.061-.228.333-.412a1.936,1.936,0,0,1,2.351.167C279.7,174.29,279.767,174.483,279.723,174.527Z" transform="translate(-213.463 -157.138)" fill="#263238"/><path d="M269.2,175.392a.763.763,0,0,1-.763.763.772.772,0,0,1,0-1.535.763.763,0,0,1,.763.772Z" transform="translate(-212.359 -157.267)" fill="#263238"/><path d="M269.523,174.418c-.1.1-.649-.386-1.456-.439s-1.421.333-1.5.228.061-.237.325-.421a1.9,1.9,0,0,1,1.211-.307,1.939,1.939,0,0,1,1.149.482C269.488,174.181,269.576,174.374,269.523,174.418Z" transform="translate(-212.212 -157.126)" fill="#263238"/><path d="M273.163,181.554a4.658,4.658,0,0,1,1.325-.167c.211,0,.4,0,.447-.193a1.167,1.167,0,0,0-.114-.658c-.167-.553-.342-1.123-.535-1.755a32.011,32.011,0,0,1-1.176-4.492,31.239,31.239,0,0,1,1.509,4.386c.176.605.351,1.184.509,1.755a1.316,1.316,0,0,1,.07.877.491.491,0,0,1-.351.3,1.282,1.282,0,0,1-.351,0,5.265,5.265,0,0,1-1.333-.053Z" transform="translate(-213.018 -157.226)" fill="#263238"/><path d="M272.218,193.882a14.318,14.318,0,0,1-7.738-2.772s1.755,4.439,7.6,4.246Z" transform="translate(-211.959 -159.29)" fill="#9b4e3d"/><path d="M245.338,172.184c.061-.421-.061.465,0-.2h0a22.28,22.28,0,0,1,.386-2.43c3.325-12.51,14.089-14.738,16.221-14.712,2.272,0,8.773-.167,12.422,4.386a11.914,11.914,0,0,1,2.07,11.94h0l-9.466-1.711c.7-2.36-.263-5.316-.816-6.694l-.053-.053c-1.763,8.983-11.475,9.817-11.475,9.817l-.123,14.352C247.487,185.861,245.171,177.395,245.338,172.184Z" transform="translate(-209.607 -154.839)" fill="#fb9300"/><path d="M252.71,174.294a3.842,3.842,0,0,1,.877.061,12.846,12.846,0,0,0,2.3,0,12.2,12.2,0,0,0,3.3-.719,11.4,11.4,0,0,0,6.141-5.264,12.283,12.283,0,0,0,1.237-3.149,26.2,26.2,0,0,0,.412-3.123,2.8,2.8,0,0,1,.105.877,10.476,10.476,0,0,1-.2,2.342,11.975,11.975,0,0,1-1.184,3.281,11.624,11.624,0,0,1-9.808,6.1,9.9,9.9,0,0,1-2.334-.167A2.694,2.694,0,0,1,252.71,174.294Z" transform="translate(-210.514 -155.73)" fill="#263238"/><path d="M255.438,181.888c.061-.877.474-3.062.176-3.913s-1.246-1.044-2.29-1.035a2.342,2.342,0,0,0-2.255,2.246,3.062,3.062,0,0,0,1.272,2.632,3.456,3.456,0,0,0,3,.175" transform="translate(-210.313 -157.551)" fill="#ffbe9d"/><path d="M254.508,180.886c0-.061-.3.07-.676-.061a1.228,1.228,0,0,1-.781-1.176.711.711,0,0,1,.807-.877c.412.053.693.167.719.1s-.175-.254-.658-.4a1.061,1.061,0,0,0-.877.149,1.237,1.237,0,0,0-.4,1.053,1.649,1.649,0,0,0,.316,1.018,1.246,1.246,0,0,0,.781.447C254.3,181.2,254.551,180.921,254.508,180.886Z" transform="translate(-210.505 -157.734)" fill="#9b4e3d"/><path d="M251.85,182.374a3.639,3.639,0,0,0-.114.974,1.359,1.359,0,0,0,2.509.6,1.316,1.316,0,0,0,.2-.947,2.528,2.528,0,0,0-.36-.877c.053,0,.465.149.676.877a1.57,1.57,0,0,1-.158,1.228,1.7,1.7,0,0,1-2.711.368,1.579,1.579,0,0,1-.474-1.141C251.429,182.638,251.824,182.331,251.85,182.374Z" transform="translate(-210.356 -158.187)" fill="#455a64"/><path d="M246.754,177.533a2.833,2.833,0,0,1-.825-1.053,7.641,7.641,0,0,1-.474-6.273,2.72,2.72,0,0,1,.667-1.158,12.379,12.379,0,0,0-.658,4.308,12.642,12.642,0,0,0,1.29,4.176Z" transform="translate(-209.568 -156.583)" fill="#455a64"/><path d="M219.663,201.229a2.419,2.419,0,0,1-.237-.395,4.6,4.6,0,0,1-.351-1.263,5.264,5.264,0,0,1,.184-2.079,4.825,4.825,0,0,1,1.5-2.281c.79-.7,1.93-1.009,2.632-1.851a2.334,2.334,0,0,0,.491-1.579,15.691,15.691,0,0,0-.263-1.9,4.807,4.807,0,0,1,.061-2.114,4.693,4.693,0,0,1,1.149-1.895,15.1,15.1,0,0,1,3.746-2.544,7.088,7.088,0,0,0,3.141-2.9,9.975,9.975,0,0,0,.474-4.027,8.966,8.966,0,0,1,2.632-6.518,6.562,6.562,0,0,1,4.386-1.755,5.263,5.263,0,0,1,1.3.175,1.4,1.4,0,0,1,.43.167,8.485,8.485,0,0,0-1.755-.158,6.509,6.509,0,0,0-4.193,1.816,8.773,8.773,0,0,0-2.448,6.281,10.29,10.29,0,0,1-.491,4.211,7.457,7.457,0,0,1-3.316,3.114,15.028,15.028,0,0,0-3.65,2.456,3.834,3.834,0,0,0-1.114,3.641,14.725,14.725,0,0,1,.246,1.956,2.719,2.719,0,0,1-.605,1.834c-.877.947-2.027,1.211-2.755,1.851a4.667,4.667,0,0,0-1.456,2.149,5.264,5.264,0,0,0-.254,1.983A7.413,7.413,0,0,0,219.663,201.229Z" transform="translate(-206.383 -156.469)" fill="#263238"/><path d="M270.346,183.112a1.667,1.667,0,0,1,1.281,0,1.3,1.3,0,0,1,.754,1.009,1.07,1.07,0,0,1-.6,1.079,1.351,1.351,0,0,1-1.219-.14,1.43,1.43,0,0,1-.728-.877.877.877,0,0,1,.518-.983" transform="translate(-212.614 -158.293)" fill="#cd4223"/><path d="M269.754,181.85a6.429,6.429,0,0,0,1.439,1.86,7.018,7.018,0,0,0,2.193.877c0,.061-.272.158-.746.14a3.2,3.2,0,0,1-1.755-.623,3.158,3.158,0,0,1-1.088-1.474C269.684,182.157,269.7,181.859,269.754,181.85Z" transform="translate(-212.601 -158.154)" fill="#263238"/><path d="M237.636,204.678c-3.413.877-5.325,1.93-10.413,7.448L213.59,227.435l18.73,13.624,7.667-10.413,1.632,22.809s-4.246,5.211-8.01,19.713c-3.044,11.729-3.325,23.687-4.193,32.784l-2.307,57.278,53.339,1.456s-2-16.958-1.044-53.093c.544-20.546-2.781-41.092-4.579-46.777l-2.746-14.87a13.555,13.555,0,0,1,2.334-7.667c4.325-6.088,1.246-13.282,1.246-13.282L289.9,234.26l9.4-21.2L279.86,205.74c-7.018-2.9-15.379-2.483-15.379-2.483l-14.8-.175s-6.948-.535-12.036,1.588" transform="translate(-205.714 -160.752)" fill="#5e94ff"/><path d="M272.149,460.132v-1.3l-14.089-.614v5.334l.877.061c3.869.219,19.677.877,22.274.1C284.054,462.852,272.149,460.132,272.149,460.132Z" transform="translate(-211.171 -192.069)" fill="#ff725e"/><path d="M234.491,457.95l.526-1.176-12.6-6.334-2.22,4.843.772.412c3.43,1.755,17.546,8.869,20.274,9.22C244.229,465.284,234.491,457.95,234.491,457.95Z" transform="translate(-206.525 -191.114)" fill="#ff725e"/><path d="M319.873,220.559a8.071,8.071,0,0,1-1.983-1.851,8.316,8.316,0,0,1-1.641-2.158,8.43,8.43,0,0,1,1.983,1.851,8.158,8.158,0,0,1,1.641,2.158Z" transform="translate(-218.312 -162.412)" fill="#9b4e3d"/></g></g></svg>