<svg xmlns="http://www.w3.org/2000/svg" width="333.262" height="266.562" viewBox="0 0 333.262 266.562"><g transform="translate(-51.526 -148.748)"><g transform="translate(213.97 148.748)"><path d="M330.688,237.822l-3.422-.71c-3.054-.915-4.782-1.309-5.492-2.31-.941-1.343.855-2.113.855-2.113s-2.1-1.223-1.617-2.566a1.377,1.377,0,0,1,1.411-.8s-1.831-1.172-2.062-2.079c-.317-1.232,1.206-1.557,1.206-1.557-2.378-2.207-1.8-3.815-1.146-3.85s2.566,1.343,2.566,1.343c1.711.855,6.262,3.311,4.987.265s-1.112-5.86-.539-6.6a1.035,1.035,0,0,1,1.771.855,12.25,12.25,0,0,0,.676,3.259,7.9,7.9,0,0,0,1.223,2.37,26,26,0,0,0,1.711,2.079l2.472,3.542Z" transform="translate(-258.71 -158.545)" fill="#ffbe9d"/><path d="M315.575,447.681l2.943-6.211,11.668,5.441-4.209,9.128-.744-.291c-3.3-1.326-16.7-6.955-18.546-8.615C304.625,445.285,315.575,447.681,315.575,447.681Z" transform="translate(-256.77 -191.057)" fill="#3a3b39"/><path d="M431.053,450.72l-2.909-6.228L439.77,439l4.354,9.059-.7.393c-3.122,1.711-16,8.426-18.452,8.794C422.233,457.632,431.053,450.72,431.053,450.72Z" transform="translate(-273.828 -190.7)" fill="#3a3b39"/><path d="M437.7,421.738l-18.82,8.751-33.842-60.25c-4.406-15.895-8.657-71.859-8.657-71.859l24.483,1.865s3.773,40.207,9.684,60.875Z" transform="translate(-266.881 -170.376)" fill="#523b5d"/><path d="M403,272.05c.462,0,5.466,14.825.65,24.654-.488.984-4.277,6.4-4.277,6.4-13.328,15.723-26.827,46.195-30.591,54.228-7.7,16.433-36.237,70.49-36.237,70.49L314.24,417.342l26.767-68.822,24.3-62.107Z" transform="translate(-257.899 -166.57)" fill="#523b5d"/><path d="M403.309,317.6a1.6,1.6,0,0,1-.24.376l-.753,1.018c-.65.855-1.574,2.19-2.643,3.841-2.147,3.3-4.85,8.024-7.614,13.362s-5.133,10.266-6.8,13.807l-2.01,4.217-.556,1.138a1.9,1.9,0,0,1-.222.385,1.713,1.713,0,0,1,.137-.419l.488-1.172c.428-1.018,1.069-2.481,1.873-4.277,1.625-3.593,3.918-8.555,6.7-13.884a137.457,137.457,0,0,1,7.7-13.328c1.112-1.634,2.07-2.917,2.772-3.773.325-.394.6-.71.855-.967a1.8,1.8,0,0,1,.316-.325Z" transform="translate(-267.761 -173.154)" fill="#455a64"/><path d="M340.095,230.63a61.741,61.741,0,0,1-3.37,6.527,58.794,58.794,0,0,1-3.764,6.313,62.708,62.708,0,0,1,3.371-6.536,61.656,61.656,0,0,1,3.764-6.3Z" transform="translate(-260.605 -160.583)" fill="#263238"/><path d="M374.295,200.2c1,0,2.19,7.271,3.2,20.334,1.146,14.817,1.044,29.77-3.054,39.172a8.161,8.161,0,0,1-4.277,4.56c-10.608,4.38-39.873-27-39.873-27l7.2-12.635L358.1,241.271s2.053-16.835,1.66-24.595C359.444,210.791,365.321,200.268,374.295,200.2Z" transform="translate(-260.219 -156.185)" fill="#00aec8"/><path d="M388.808,200.338s17.9,2.618,22.524,9.65,2.284,69.053,2.284,69.053l-46.007,2.72s3.713-78.942,5.988-79.84C379.313,199.679,388.124,200.116,388.808,200.338Z" transform="translate(-265.613 -156.178)" fill="#00aec8"/><path d="M297.92,179.608a11.044,11.044,0,0,1,1.018-5.475,5.449,5.449,0,0,0,.547-2.344V169.71H272.667a4.115,4.115,0,0,0-4.115,4.115v26.708h-1.814a5.509,5.509,0,0,1-2.412-.582,11.121,11.121,0,1,0-.342,20.2,5.527,5.527,0,0,1,2.25-.5h2.353v26.04a4.115,4.115,0,0,0,4.115,4.123H345.15a3.353,3.353,0,0,0,3.353-3.353v-73.4a3.345,3.345,0,0,0-3.353-3.353H318.973v2.968a5.183,5.183,0,0,0,.394,2,11.121,11.121,0,1,1-21.387,4.927Z" transform="translate(-248.38 -141.778)" fill="#fff"/><path d="M402.263,166.19c-.736,4.671-.693,8.768,1.591,11.814a17.774,17.774,0,0,1,1.369,1.848,2.815,2.815,0,0,1,.351,2.207,1.95,1.95,0,0,1-3.336.676,2.686,2.686,0,0,1-1.309,2.695,1.711,1.711,0,0,1-2.4-1.232s.607,2.37-2.113,2l1.916-16.254Z" transform="translate(-269.777 -151.269)" fill="#263238"/><path d="M386.782,201.243h0a7.571,7.571,0,0,1-7.528-8.366c.248-2.43.47-4.406.47-4.406s-5.988-.932-6.065-6.921.967-19.736.967-19.736h0a20.814,20.814,0,0,1,20.908,2.635l.855.676-2.079,29.086A7.571,7.571,0,0,1,386.782,201.243Z" transform="translate(-266.487 -150.393)" fill="#ffbe9d"/><path d="M376.347,174.49a.855.855,0,1,0-.624.228A.855.855,0,0,0,376.347,174.49Z" transform="translate(-266.668 -152.254)" fill="#263238"/><path d="M374.648,172.387c.094.1.684-.351,1.506-.351s1.429.419,1.514.316-.043-.231-.308-.436a1.985,1.985,0,0,0-1.206-.376,2.045,2.045,0,0,0-1.206.394C374.691,172.156,374.605,172.344,374.648,172.387Z" transform="translate(-266.629 -152.042)" fill="#263238"/><path d="M385.689,173.978a.855.855,0,1,0,.654-.109A.855.855,0,0,0,385.689,173.978Z" transform="translate(-268.165 -152.376)" fill="#263238"/><path d="M385.118,173.237c.094.1.684-.351,1.506-.351s1.429.419,1.514.317-.051-.231-.308-.436a1.993,1.993,0,0,0-1.215-.376,1.959,1.959,0,0,0-1.2.411C385.161,173.006,385.075,173.194,385.118,173.237Z" transform="translate(-268.142 -152.165)" fill="#263238"/><path d="M380.9,180.113a4.39,4.39,0,0,0-1.335-.282c-.214,0-.385-.068-.4-.188a1.121,1.121,0,0,1,.154-.616l.65-1.711a22.43,22.43,0,0,0,1.411-4.406,23.207,23.207,0,0,0-1.848,4.277c-.214.582-.419,1.138-.616,1.711a1.335,1.335,0,0,0-.12.9.556.556,0,0,0,.368.342,1.633,1.633,0,0,0,.368.051,4.013,4.013,0,0,0,1.369-.077Z" transform="translate(-267.225 -152.24)" fill="#263238"/><path d="M383.706,182.384c.855-.513-2.37,1.258-4.046,1.172a2.276,2.276,0,0,0,2.686.907C384.143,183.8,383.706,182.384,383.706,182.384Z" transform="translate(-267.355 -153.596)" fill="#fff"/><path d="M380.687,192.784a13.892,13.892,0,0,0,7.8-2.224s-1.848,4.277-7.819,3.773Z" transform="translate(-267.501 -154.791)" fill="#eb996e"/><path d="M399.922,172.747c.128-.043,4.466-.342,3.747,4.705s-5.578,2.652-5.569,2.507S399.922,172.747,399.922,172.747Z" transform="translate(-270.02 -152.214)" fill="#ffbe9d"/><path d="M400.2,178.716a1.2,1.2,0,0,0,.222.163.855.855,0,0,0,.65.111,2.2,2.2,0,0,0,1.283-1.814,2.823,2.823,0,0,0-.06-1.292,1.035,1.035,0,0,0-.565-.77.445.445,0,0,0-.556.171c-.086.128-.068.231-.1.24s-.094-.1,0-.3a.531.531,0,0,1,.248-.291.633.633,0,0,1,.5-.06,1.24,1.24,0,0,1,.77.958,2.9,2.9,0,0,1,.1,1.446,2.3,2.3,0,0,1-1.591,2,.967.967,0,0,1-.787-.248C400.19,178.836,400.182,178.725,400.2,178.716Z" transform="translate(-270.323 -152.52)" fill="#eb996e"/><path d="M372.908,159.6a1.968,1.968,0,0,1,2.241-1.608,2.25,2.25,0,1,1,1.489-4.081,6.7,6.7,0,0,1-1.574-2.25,2.258,2.258,0,0,1,.582-2.566,2.566,2.566,0,0,1,2.566,0c1.232.624,2.164,1.754,3.422,2.284a14.562,14.562,0,0,0,4.132.548,7.365,7.365,0,0,1,4.2,1.754,4.953,4.953,0,0,1,1.711,4.123c1.891-.111,3.961,0,5.424,1.172a4.346,4.346,0,0,1,1.642-4.063,5.543,5.543,0,0,1,5.381-.53,3.122,3.122,0,0,1,1.856,1.711,3.191,3.191,0,0,1-1.258,3.2,7.177,7.177,0,0,1-6.288,1.514,6.528,6.528,0,0,1,.428,2.806c-.094,1.651-1.42,3.362-2,4.91h0l-.128,1.018-.992,4.235-2.652-.214.727-8.9s.5-3.738-2.755-3.61-7.862,3.507-14.089,2.2a6.929,6.929,0,0,1-2.874-1.018A2.909,2.909,0,0,1,372.908,159.6Z" transform="translate(-266.377 -148.748)" fill="#263238"/><path d="M412.019,165.183a3.8,3.8,0,0,1-1.711.736,6.775,6.775,0,0,1-7.648-3.755,3.79,3.79,0,0,1-.47-1.814c.077,0,.214.693.753,1.711a6.981,6.981,0,0,0,7.306,3.584C411.343,165.423,411.985,165.1,412.019,165.183Z" transform="translate(-270.611 -150.425)" fill="#263238"/><path d="M405.682,170.349c-.068,0,0-.53-.154-1.317a9.153,9.153,0,0,0-1.24-2.891,24.364,24.364,0,0,1-1.625-2.823A2.755,2.755,0,0,1,402.32,162a8.384,8.384,0,0,1,.625,1.181c.385.719,1.044,1.642,1.711,2.729a7.6,7.6,0,0,1,1.181,3.071A2.156,2.156,0,0,1,405.682,170.349Z" transform="translate(-270.63 -150.663)" fill="#263238"/><path d="M352.488,226.521a95.145,95.145,0,0,1-8.614-5.911c-3.311-2.8-3.071-3.105-2.686-3.422,1.027-.915,5.988,4.705,5.62,2.857s-6.844-6.142-5.749-7.049c1.454-1.189,6.553,4.791,7.023,5.261s1.155-.205.71-.607c-.642-.582-7.211-6.844-5.8-8.024.787-.659,1.8.9,1.8.9s5.732,6.339,6.382,5.757-2.566-4.423-3.764-5.637-1.086-2.25-.137-2.344c.642-.06,4.346,3.567,5.492,4.791s4.209,4.654,4.038,1.711.77-5.287,1.454-5.74,1.548.368,1.223,1.223a10.875,10.875,0,0,0-.376,2.96,7.188,7.188,0,0,0,.325,2.37c.205.659.411,1.24.607,1.754l2.01,5.535L357,229.293Z" transform="translate(-261.758 -157.355)" fill="#ffbe9d"/><path d="M404.069,207.263c1.061.265,7.374,3.533,7.477,17.845.077,11.378-.8,36.631-8.555,40.386a14.048,14.048,0,0,1-13.491-1.326c-13.071-8.443-36.22-35.664-36.22-35.664l10.36-11.035s26.9,27.375,28.042,26.365c1.711-1.523-.915-14.594.556-27.512C393.247,207.135,397.525,205.629,404.069,207.263Z" transform="translate(-263.542 -157.123)" fill="#00aec8"/></g><g transform="translate(51.526 148.779)"><path d="M97.566,401.693l-27.477,24.8L62.56,416.86l24.081-29.83Z" transform="translate(-59.078 -183.22)" fill="#ffbe9d"/><path d="M70.133,432.306l.941-.855L62.4,420.8l-3.909,3.422.522.667c2.335,2.968,12.1,14.928,14.338,16.314C75.847,442.743,70.133,432.306,70.133,432.306Z" transform="translate(-58.49 -188.101)" fill="#ff725e"/><path d="M157.722,403.87l2.741,37.461H147.233l-6.6-37.461Z" transform="translate(-70.362 -185.653)" fill="#ffbe9d"/><path d="M161.677,447.847V446.59l-13.747-.06.163,5.193h.855c3.781.068,19.214.1,21.7-.753C173.337,450.046,161.677,447.847,161.677,447.847Z" transform="translate(-71.417 -191.819)" fill="#ff725e"/><path d="M124.507,274.35s11.078,73.57,9.47,77.154S96.482,391.8,96.482,391.8L83,368.733s23.748-26.305,23.405-27.666S89.3,268.43,89.3,268.43Z" transform="translate(-62.033 -166.077)" fill="#fb9300"/><path d="M134.6,302.519c-.111-.787-9.051-20.882-9.051-20.882l4.337-6.125.77-.163Z" transform="translate(-68.183 -167.077)" fill="#fb9300"/><path d="M82.732,267.25l-.676,2.729A32.174,32.174,0,0,0,85.478,293.7l30.01,52.038a41.533,41.533,0,0,1,4.6,11.84l7.485,33.671h24.637s-3.045-23.1-5.757-39.942c-2.053-12.721-19.077-52.183-27.323-70.867l5.133-6.288-8.871-1.48Z" transform="translate(-61.765 -165.907)" fill="#fb9300"/><path d="M126.31,282.53a25.9,25.9,0,0,0,1.258,3.294c.855,2.01,1.95,4.791,3.148,7.879s2.25,5.911,3,7.947a26.97,26.97,0,0,0,1.3,3.276,3.739,3.739,0,0,0-.214-.932c-.163-.582-.419-1.429-.753-2.464-.676-2.07-1.711-4.9-2.874-8.007s-2.387-5.86-3.294-7.836c-.453-.992-.855-1.788-1.1-2.327a3.6,3.6,0,0,0-.47-.83Z" transform="translate(-68.293 -168.115)" fill="#455a64"/><path d="M125.429,376.071a2.967,2.967,0,0,0,0-.582c-.051-.436-.111-.984-.188-1.668a25.3,25.3,0,0,0-.394-2.626c-.2-1.009-.385-2.181-.719-3.422-.154-.633-.317-1.3-.488-1.985s-.411-1.394-.633-2.13c-.411-1.48-.992-3.011-1.557-4.637a105.085,105.085,0,0,0-4.577-10.266,178.836,178.836,0,0,0-10.488-17.426c-1.446-2.156-2.643-3.892-3.482-5.081l-.967-1.326a3.216,3.216,0,0,0-.368-.453,2.516,2.516,0,0,0,.282.513l.9,1.411c.855,1.275,1.968,3.02,3.353,5.133,2.814,4.363,6.7,10.42,10.343,17.451a111.084,111.084,0,0,1,4.543,10.163c.573,1.608,1.172,3.131,1.6,4.594.222.727.453,1.429.65,2.113s.351,1.335.513,1.968c.359,1.249.565,2.4.787,3.422s.376,1.882.479,2.566.205,1.223.282,1.651a2.755,2.755,0,0,0,.128.616Z" transform="translate(-64.717 -174.177)" fill="#455a64"/><path d="M106.877,149.616c-4.748-1.181-9.855,1.788-12.216,6.065s-2.387,9.521-1.275,14.278c.47,1.993,1.129,4.055.667,6.057-.5,2.147-2.207,3.815-3.028,5.868-1.565,3.961.428,8.349,2.378,12.13.855,1.711,2.027,3.636,3.927,4.012,2.13.419,4-1.283,5.8-2.507a15.253,15.253,0,0,1,10.813-2.438c4.277.659,8.144,3.114,12.438,3.191a11.626,11.626,0,0,0,9.812-5.261c1.275-1.993,1.711-5-.128-6.467-1.215-.967-3.071-.932-4.14-2.062-1.3-1.377-.736-3.593-.068-5.355s1.335-3.918.145-5.389c-1.326-1.66-4.2-1.343-5.466-3.045s.068-4.277,0-6.536A6.63,6.63,0,0,0,123.6,157.2c-1.608-1.172-1.831-1.548-4.046-5.578" transform="translate(-63.111 -148.867)" fill="#e73a5e"/><path d="M98.3,195.346l17.109,1.463s12.464-1.822,17.238,29.787l18.94-.778.855,12.592L126.4,239.693l-3.071-1.839.308,25.895-43.09-3.174c.975-5.877,5.569-13.61,7.109-18.572C86.088,238.085,77.43,222.114,77,213.91c-1.163-22.464,21.3-18.564,21.3-18.564" transform="translate(-61.159 -155.477)" fill="#00a650"/><path d="M133.242,222.48s3.028,3.422,3.08,6.3c.077,4.62-1.086,6.989.359,12.036l-4.123.992a6.325,6.325,0,0,1-.094-3.867c.539-2.635,1.583-5.843,2.045-8.709a9.778,9.778,0,0,0-1.266-6.758Z" transform="translate(-69.151 -159.436)" opacity="0.3"/><g transform="translate(39.095 67.475)" opacity="0.2"><path d="M129.067,242.237l-12.764.291a7.2,7.2,0,0,1-2.994-.351,7.029,7.029,0,0,1-2.96-3.122q-3.362-5.543-6.159-11.395s3.371,10.719,5.484,15.4a2.438,2.438,0,0,0,2.986,1.54A57.461,57.461,0,0,0,129.067,242.237Z" transform="translate(-104.19 -227.66)"/></g><path d="M218.948,203.327a11.044,11.044,0,0,1,5.475,1.018,5.406,5.406,0,0,0,2.335.548h2.087V178.074a4.115,4.115,0,0,0-4.123-4.115H198.015v-1.814a5.569,5.569,0,0,1,.582-2.421,10.967,10.967,0,0,0,.941-6.724,11.121,11.121,0,1,0-21.129,6.391,5.663,5.663,0,0,1,.5,2.24v2.327H152.855a4.115,4.115,0,0,0-4.115,4.115v72.449a3.353,3.353,0,0,0,3.353,3.353h73.4a3.362,3.362,0,0,0,3.353-3.353V224.338h-2.968a5.321,5.321,0,0,0-2,.394,10.958,10.958,0,0,1-4.14.813,11.128,11.128,0,0,1-.787-22.242Z" transform="translate(-71.535 -149.505)" fill="#fff"/><path d="M101.416,189.453l-1.326-30.2,11.976-9.085,10.9,5.33s.368,13.687,0,19.624-6.348,6.57-6.348,6.57.145,3.473.282,7.126a7.759,7.759,0,0,1-7.827,8.05h0a7.759,7.759,0,0,1-7.656-7.417Z" transform="translate(-64.503 -148.984)" fill="#ffbe9d"/><path d="M125.213,167.931a.761.761,0,1,1-.761-.761.761.761,0,0,1,.761.761Z" transform="translate(-67.914 -151.441)" fill="#263238"/><path d="M125.82,166.935c-.1.1-.659-.376-1.48-.419s-1.429.351-1.514.24.06-.231.325-.411a1.993,1.993,0,0,1,2.387.145C125.786,166.7,125.863,166.858,125.82,166.935Z" transform="translate(-67.785 -151.275)" fill="#263238"/><path d="M114.923,167.931a.761.761,0,1,1-.761-.761.761.761,0,0,1,.761.761Z" transform="translate(-66.427 -151.441)" fill="#263238"/><path d="M115.22,166.932c-.1.1-.659-.376-1.48-.419s-1.429.351-1.514.24.06-.231.325-.411A2,2,0,0,1,113.74,166a2.028,2.028,0,0,1,1.172.471C115.186,166.7,115.263,166.855,115.22,166.932Z" transform="translate(-66.253 -151.272)" fill="#263238"/><path d="M118.112,186.55a14.817,14.817,0,0,1-7.862-2.66s1.968,4.44,7.922,4.2Z" transform="translate(-65.971 -153.858)" fill="#eb996e"/><path d="M119.157,173.962a5.99,5.99,0,0,1,1.335-.171c.205,0,.411,0,.462-.188a1.223,1.223,0,0,0-.12-.667q-.265-.8-.565-1.711c-.385-1.206-.719-2.3-.95-3.1a5.731,5.731,0,0,1-.3-1.317,5.45,5.45,0,0,1,.522,1.24c.282.787.659,1.865,1.044,3.071l.539,1.711a1.283,1.283,0,0,1,.077.855.513.513,0,0,1-.342.3,1.944,1.944,0,0,1-.359,0,5.612,5.612,0,0,1-1.343-.026Z" transform="translate(-67.239 -151.389)" fill="#263238"/><path d="M118.278,176a1.959,1.959,0,0,0-.855.479.8.8,0,0,0,.855,1.326,1.121,1.121,0,0,0,.744-.556.855.855,0,0,0-.1-.915.693.693,0,0,0-.855-.128" transform="translate(-66.967 -152.718)" fill="#eb996e"/><path d="M119.332,177.169c0,.12-.676.308-1.4-.111s-.924-1.112-.8-1.138.428.428,1.027.753S119.314,177.04,119.332,177.169Z" transform="translate(-66.96 -152.706)" fill="#263238"/><path d="M113.339,148.789a8.555,8.555,0,0,0-6.69,2.866A9.735,9.735,0,0,0,104.3,158.6a4.277,4.277,0,0,0,.855,2.643c.855.984,2.3,1.181,3.61,1.309a8.606,8.606,0,0,0,3.995-.205,2.963,2.963,0,0,0,2.036-3.114,1.952,1.952,0,0,0,.787,2.661,5.629,5.629,0,0,0,3.037.548H123.1a2.464,2.464,0,0,0,1.471-.317,2.566,2.566,0,0,0,.736-1.848c.24-2.387.462-4.927-.633-7.058a8.452,8.452,0,0,0-4.953-3.892c-2.045-.676-4.277-.368-6.407-.5" transform="translate(-65.108 -148.784)" fill="#e73a5e"/><path d="M99.976,188.912c1.634.855,4.731-2.515,5.74-4.063a8.016,8.016,0,0,0,.855-5.355c-.214-1.839-.7-3.644-.744-5.492-.06-2.994,1.069-5.86,1.6-8.811a22.447,22.447,0,0,0-.4-9.658c-.325-1.223-.855-2.566-2.053-3.028a2.994,2.994,0,0,0-2.943.607,7.169,7.169,0,0,0-1.779,2.566l-.95,7.2.71,10.086Z" transform="translate(-64.389 -149.299)" fill="#e73a5e"/><path d="M140.091,233.147l4.363,14.885s-22.832,8.307-35.194,8.153c-11.592-.137-14.911-1.454-18.983-10.813s-8.726-20.1-9.675-26.288c0,0-9.316-25.852,15.629-23.3l3.422,19.676s2.763,9.128,2.96,9.658c1.865,4.927,4.277,12.148,6.613,13.02S140.091,233.147,140.091,233.147Z" transform="translate(-61.44 -155.551)" fill="#00a650"/><path d="M91.2,251.14s4.277,16.425,15.4,16.091,21.566-5.09,21.566-5.09l-.5-.513s-18.82,4.055-24.047,1.506C93.689,258.309,91.2,251.14,91.2,251.14Z" transform="translate(-63.218 -163.578)" opacity="0.2"/><path d="M153.25,251.454h3.5c3.174-.308,4.945-.359,5.834-1.2,1.189-1.138-.445-2.241-.445-2.241s2.293-.8,2.079-2.19c-.145-.958-1.232-1.061-1.232-1.061s2.027-.8,2.43-1.642c.539-1.146-.855-1.762-.855-1.762,2.763-1.711,2.515-3.422,1.873-3.559a8.761,8.761,0,0,0-2.789.855c-1.822.522-6.792,2.036-4.953-.7s2.224-5.535,1.805-6.365a1.035,1.035,0,0,0-1.9.47,11.788,11.788,0,0,1-1.292,3.063,8.05,8.05,0,0,1-1.66,2.1c-.778.693-1.471,1.249-2.062,1.711l-3.114,2.994Z" transform="translate(-71.785 -160.684)" fill="#ffbe9d"/></g></g></svg>