<svg xmlns="http://www.w3.org/2000/svg" width="246.402" height="324.428" viewBox="0 0 246.402 324.428"><g transform="translate(-86.21 -38.719)"><g transform="translate(86.21 101.5)"><path d="M300.12,128.671c-28.677-25.059-67.495,0-105.209,52.734s-55.647,30.541-87.707,53.783S66.57,353.638,179.524,344.382,375.086,194.091,300.12,128.671Z" transform="translate(-86.21 -118.89)" fill="#fff" opacity="0"/></g><g transform="translate(267.547 183.948)"><path d="M332.188,307.6c-12.1-8.45-14.84-24.135-14.362-38.239.078-2.349-.18-4.84.94-6.9s3.735-3.477,5.842-2.49c1.746.822,2.506,2.858,3.485,4.542a13.752,13.752,0,0,0,5.521,5.27c1.5.783,3.352,1.253,4.832.439,2.036-1.12,2.271-3.915,2.255-6.265q0-6.554-.078-13.093a21.8,21.8,0,0,1,.7-6.954,7.288,7.288,0,0,1,4.565-4.91c2.216-.626,4.98.666,5.482,2.952a22.539,22.539,0,0,1,.07,2.913,2.53,2.53,0,0,0,1.433,2.349c.916.3,1.872-.384,2.576-1.073a30.94,30.94,0,0,0,5.583-8.434A43.058,43.058,0,0,1,366.253,229c2.193-2.576,5.223-4.62,8.614-4.816s6.923,1.887,7.768,5.176-1.073,6.648-3.132,9.319a52.365,52.365,0,0,1-10.877,10.376,4.26,4.26,0,0,0-1.825,1.95c-.509,1.566.971,3.132,2.514,3.626,1.746.579,3.641.4,5.482.619s3.8,1.018,4.495,2.741c.955,2.4-1.049,4.9-3.015,6.547a44.933,44.933,0,0,1-13.25,7.651,15.146,15.146,0,0,0-4.926,2.388c-1.394,1.206-2.224,3.313-1.386,4.965s2.991,2.177,4.8,1.84a31.217,31.217,0,0,0,5.137-1.958c3.219-1.214,7.369-.995,9.4,1.785a7.408,7.408,0,0,1,.783,6.554,17.1,17.1,0,0,1-3.547,5.787,45.13,45.13,0,0,1-19.311,13.493c-7.463,2.584-14.378,3.289-21.794.572" transform="translate(-317.775 -224.174)" fill="#00a650"/><path d="M383.03,226.66s-.07.078-.227.219l-.7.619c-.611.548-1.511,1.347-2.647,2.4a87.4,87.4,0,0,0-8.943,9.656c-1.746,2.169-3.555,4.628-5.482,7.3s-3.915,5.552-5.889,8.614a106.242,106.242,0,0,0-5.771,10.008c-.908,1.793-1.707,3.665-2.529,5.576l-2.428,5.834a215.239,215.239,0,0,0-8.348,22.53,104.934,104.934,0,0,0-3.915,19.209,76.383,76.383,0,0,0-.219,13.227c.125,1.566.243,2.764.352,3.579.047.392.078.7.11.932v.321a1.635,1.635,0,0,1-.07-.313c-.039-.227-.086-.532-.149-.924-.141-.783-.29-2.02-.431-3.587a72.777,72.777,0,0,1,.078-13.266,103.22,103.22,0,0,1,3.829-19.3,210.187,210.187,0,0,1,8.324-22.584l2.49-5.811c.822-1.9,1.629-3.79,2.545-5.591a104.857,104.857,0,0,1,5.818-10.031c2-3.132,4.025-5.967,5.928-8.614s3.743-5.121,5.482-7.283a83.241,83.241,0,0,1,9.06-9.585c1.159-1.042,2.083-1.825,2.709-2.349l.728-.587a1.706,1.706,0,0,1,.29-.2Z" transform="translate(-321.616 -224.713)" fill="#263238"/><path d="M357.054,268.866a4.847,4.847,0,0,1-.227-.995c-.125-.65-.266-1.566-.431-2.756-.337-2.349-.681-5.568-1.049-9.131s-.783-6.789-1.128-9.115c-.18-1.159-.337-2.091-.446-2.741a4.228,4.228,0,0,1-.133-1.018,4.33,4.33,0,0,1,.29.979c.172.642.368,1.566.587,2.733.446,2.349.885,5.544,1.253,9.115s.681,6.7.924,9.139c.117,1.1.219,2.028.3,2.772a4.339,4.339,0,0,1,.063,1.018Z" transform="translate(-325.554 -228.281)" fill="#263238"/><path d="M388.164,268.805a6.261,6.261,0,0,1-1.159.141c-.783.07-1.9.164-3.273.321-2.756.3-6.547.846-10.7,1.629s-7.894,1.668-10.58,2.349c-1.339.345-2.42.658-3.132.869a5.718,5.718,0,0,1-1.175.282,6.819,6.819,0,0,1,1.128-.446c.736-.258,1.8-.619,3.132-1,2.67-.783,6.406-1.715,10.58-2.514a106.609,106.609,0,0,1,10.689-1.488c1.386-.117,2.506-.164,3.289-.18a6.022,6.022,0,0,1,1.206.039Z" transform="translate(-326.53 -233.843)" fill="#263238"/><path d="M337.1,308.07a1.632,1.632,0,0,1-.2-.368l-.517-1.088c-.446-.948-1.049-2.349-1.77-4.064-1.457-3.446-3.313-8.269-5.286-13.626s-3.79-10.18-5.168-13.665c-.673-1.691-1.229-3.078-1.645-4.111l-.439-1.12a1.51,1.51,0,0,1-.125-.407,1.631,1.631,0,0,1,.2.368l.517,1.089c.439.948,1.049,2.349,1.77,4.064,1.457,3.446,3.313,8.27,5.286,13.626s3.79,10.18,5.168,13.665c.673,1.691,1.229,3.078,1.637,4.111.18.446.329.783.446,1.12A1.513,1.513,0,0,1,337.1,308.07Z" transform="translate(-318.681 -234.031)" fill="#263238"/><path d="M381.3,302.25a1.66,1.66,0,0,1-.4.164l-1.159.392-4.284,1.386c-3.618,1.175-8.614,2.85-14.1,4.7s-10.5,3.493-14.143,4.589c-1.817.556-3.3.979-4.323,1.261l-1.182.305a2.029,2.029,0,0,1-.423.086,1.661,1.661,0,0,1,.4-.164l1.159-.392,4.284-1.386c3.618-1.175,8.614-2.85,14.1-4.7S371.721,305,375.362,303.9c1.825-.556,3.3-.979,4.331-1.261l1.182-.305A2.031,2.031,0,0,1,381.3,302.25Z" transform="translate(-322.876 -241.109)" fill="#263238"/></g><g transform="translate(263.746 38.719)"><path d="M358.825,55.134l-4.033,1.441-1.731-5.27c-3.179-9.718-13.313-14.879-22.624-11.6S316.17,53.646,319.349,63.364l1.731,5.27-4.049,1.449a6.437,6.437,0,0,0-3.775,8.05l11.222,34.292a6.053,6.053,0,0,0,7.721,4l41.794-14.949a6.468,6.468,0,0,0,3.814-8.129l-11.23-34.292a6.038,6.038,0,0,0-7.753-3.923Zm-31.856,5.482a10.329,10.329,0,0,1,6.077-12.96,9.679,9.679,0,0,1,12.4,6.351l1.723,5.27-18.473,6.609Zm23.493,30.431,2.866,8.755a.713.713,0,0,1-.446.877l-4.017,1.433a.642.642,0,0,1-.783-.423l-2.89-8.716a7.831,7.831,0,0,1-7.048-5.482,8.23,8.23,0,0,1,4.847-10.321,7.714,7.714,0,0,1,9.875,5.059,8.363,8.363,0,0,1-2.4,8.841Z" transform="translate(-312.921 -38.719)" fill="#4a484b"/><path d="M356.822,61.4c0,.11-7.479,2.921-16.782,6.265s-16.891,6.03-16.931,5.952,7.479-2.913,16.79-6.265S356.783,61.3,356.822,61.4Z" transform="translate(-315.131 -43.638)" fill="#263238"/><path d="M368.945,63.24a1.372,1.372,0,0,1,.086.211c.063.157.133.36.227.611.2.572.486,1.363.838,2.349l3.007,8.755c1.253,3.712,2.749,8.113,4.409,13,.783,2.451,1.707,5,2.569,7.69a11.746,11.746,0,0,1,.587,4.3,5.773,5.773,0,0,1-.634,2.169,5.983,5.983,0,0,1-1.48,1.746,14.094,14.094,0,0,1-3.978,2.028l-4.033,1.449-7.635,2.733-12.929,4.6-8.732,3.07-2.349.783-.626.2a.665.665,0,0,1-.211.055.411.411,0,0,0,.2-.094l.611-.243,2.349-.885,8.685-3.2,12.905-4.7,7.62-2.756,4.033-1.457a13.413,13.413,0,0,0,3.861-1.966,5.568,5.568,0,0,0,1.378-1.621,5.152,5.152,0,0,0,.587-2.013,11.269,11.269,0,0,0-.564-4.143c-.846-2.663-1.739-5.239-2.545-7.69-1.629-4.894-3.132-9.311-4.323-13.023s-2.193-6.7-2.882-8.794c-.329-1.026-.58-1.825-.783-2.4L369,63.389a.73.73,0,0,1-.055-.149Z" transform="translate(-318.374 -44.038)" fill="#263238"/><path d="M344.72,49.032s-.415-.2-1.183-.517a10.43,10.43,0,0,0-3.422-.689,11.747,11.747,0,0,0-5.059.955,11.277,11.277,0,0,0-4.785,4,10.587,10.587,0,0,0-1.84,5.944,18.317,18.317,0,0,0,.783,5.129c.407,1.425.83,2.561,1.112,3.352a8.745,8.745,0,0,1,.407,1.237,6.874,6.874,0,0,1-.556-1.182c-.321-.783-.783-1.9-1.237-3.328a17.807,17.807,0,0,1-.9-5.208,10.736,10.736,0,0,1,1.879-6.171,11.457,11.457,0,0,1,4.973-4.119,11.653,11.653,0,0,1,5.208-.893,9.859,9.859,0,0,1,3.469.822,6.465,6.465,0,0,1,.846.47A1.167,1.167,0,0,1,344.72,49.032Z" transform="translate(-316.2 -40.629)" fill="#263238"/><path d="M348.5,88.308a2.7,2.7,0,0,1,.392-.2,7.771,7.771,0,0,1,1.214-.431,8.685,8.685,0,0,1,2.028-.345,6.876,6.876,0,0,1,2.749.415,8.487,8.487,0,0,1,4.753,5.482,7.893,7.893,0,0,1,0,4.495,10.179,10.179,0,0,1-2.522,4.221l.047-.211c1.042,2.858,2.177,5.959,3.352,9.194l.07.2-.2.07-1.793.6-3.915,1.308-.2.063-.063-.2c-1.073-3.242-2.247-6.265-3.132-9.233l.172.133a7.831,7.831,0,0,1-4.2-1.652,9.475,9.475,0,0,1-2.623-3.132,7.157,7.157,0,0,1-.83-3.524,8.5,8.5,0,0,1,3.281-6.468,4.98,4.98,0,0,1,1.355-.783,15.1,15.1,0,0,0-1.284.854,8.324,8.324,0,0,0-2.42,3.438,7.408,7.408,0,0,0,.243,6.32,9.193,9.193,0,0,0,2.561,3.007,7.455,7.455,0,0,0,4,1.566h.133l.039.117c.861,2.913,2.044,5.959,3.132,9.217l-.258-.125,3.915-1.308,1.785-.6-.125.266c-1.167-3.234-2.294-6.343-3.328-9.2v-.117l.094-.094a9.977,9.977,0,0,0,2.475-4.049,7.573,7.573,0,0,0,0-4.3,8.28,8.28,0,0,0-4.526-5.333,6.727,6.727,0,0,0-2.655-.446,8.974,8.974,0,0,0-2,.274C349.056,88.081,348.508,88.347,348.5,88.308Z" transform="translate(-319.62 -49.263)" fill="#263238"/></g><g transform="translate(173.243 73.34)"><path d="M292.527,313.465l-78.223-.36a17.048,17.048,0,0,1-16.954-17.118l.83-196.095A17.032,17.032,0,0,1,215.3,82.93l78.216.36A17.048,17.048,0,0,1,310.476,100.4l-.83,196.087A17.048,17.048,0,0,1,292.527,313.465Z" transform="translate(-197.35 -82.93)" fill="#455a64"/><path d="M294.839,91.926H279.678a3.767,3.767,0,0,0-3.7,3.837v2.749a3.759,3.759,0,0,1-3.7,3.829l-29.554-.133a3.774,3.774,0,0,1-3.673-3.868V95.591a3.775,3.775,0,0,0-3.665-3.868h-5.333l-13.273-.063a11.934,11.934,0,0,0-12,11.817L204,294.881a11.926,11.926,0,0,0,11.872,11.981l78.059.36a11.934,11.934,0,0,0,11.989-11.88l.783-191.4a11.942,11.942,0,0,0-11.864-12.013Z" transform="translate(-198.792 -84.823)" fill="#fff"/><rect width="20.141" height="3.696" rx="1.848" transform="translate(18.939 63.277) rotate(0.26)" fill="#3e70d3"/><path d="M300.642,189.008a1.8,1.8,0,0,0,.462-.11,1.237,1.237,0,0,0,.783-1.057c0-1.245,0-3.062,0-5.4v-5a1.52,1.52,0,0,0-.219-1.026,1.175,1.175,0,0,0-.932-.478H288.2l-65.5-.243a1.042,1.042,0,0,0-.861.431,1.5,1.5,0,0,0-.2,1.026v9.4a6.176,6.176,0,0,0,0,1.1,1.057,1.057,0,0,0,.611.7,1.221,1.221,0,0,0,.486.086h3.986l17.393.094,29.444.18,19.851.157,5.4.063H273.555l-29.444-.094-17.393-.07h-3.986a1.566,1.566,0,0,1-.642-.11,1.472,1.472,0,0,1-.846-.979,2.216,2.216,0,0,1-.047-.626v-9.977a4.38,4.38,0,0,1,0-.626,1.331,1.331,0,0,1,.258-.634,1.441,1.441,0,0,1,1.19-.6l65.5.36,11.316.078h1.222a1.339,1.339,0,0,1,1.1.572,1.668,1.668,0,0,1,.251,1.151v5c0,2.349-.055,4.15-.07,5.4a1.269,1.269,0,0,1-.822,1.089.94.94,0,0,1-.493.141Z" transform="translate(-202.52 -102.946)" fill="#e0e0e0"/><rect width="36.837" height="3.453" rx="1.727" transform="translate(24.989 76.681)" fill="#3e70d3"/><rect width="20.141" height="3.696" rx="1.848" transform="translate(18.801 96.997) rotate(0.26)" fill="#3e70d3"/><path d="M300.083,232.092a4.045,4.045,0,0,0,.47-.086,1.605,1.605,0,0,0,.987-.893,2.193,2.193,0,0,0,.141-.995v-9.342a1.684,1.684,0,0,0-.227-1.034,1.519,1.519,0,0,0-.854-.666,4.8,4.8,0,0,0-1.182-.063H288.148l-65.271-.243a1.449,1.449,0,0,0-1.433,1.261c0,.744,0,1.566,0,2.349v7.048a4.5,4.5,0,0,0,.047,1.1,1.488,1.488,0,0,0,.572.783,1.629,1.629,0,0,0,.971.251h3.352l17.33.086,29.343.18,19.781.157,5.38.063H273.058l-29.358-.031-17.33-.063h-3.406a1.965,1.965,0,0,1-1.2-.321,1.88,1.88,0,0,1-.736-1.026,4.936,4.936,0,0,1-.063-1.206q0-1.175,0-2.349V220a1.856,1.856,0,0,1,1.84-1.621l65.271.36,11.269.086a4.847,4.847,0,0,1,1.253.086,1.731,1.731,0,0,1,.963.783,1.887,1.887,0,0,1,.251,1.143v9.381a2.185,2.185,0,0,1-.164,1.026,1.66,1.66,0,0,1-1.057.893A1.471,1.471,0,0,1,300.083,232.092Z" transform="translate(-202.47 -112.31)" fill="#e0e0e0"/><rect width="20.141" height="3.696" rx="1.848" transform="translate(18.649 132.18) rotate(0.26)" fill="#3e70d3"/><path d="M299.9,276.974a3.743,3.743,0,0,0,.47-.086,1.613,1.613,0,0,0,.987-.885,2.208,2.208,0,0,0,.141-.995v-9.35a1.684,1.684,0,0,0-.227-1.034,1.566,1.566,0,0,0-.854-.658,4.78,4.78,0,0,0-1.182-.07H287.968l-65.271-.243a1.449,1.449,0,0,0-1.433,1.261q0,1.175,0,2.349v7.048a4.432,4.432,0,0,0,.047,1.089,1.433,1.433,0,0,0,.572.783,1.566,1.566,0,0,0,.971.251h3.406l17.33.094,29.343.18,19.781.157,5.38.063H272.932l-29.343-.086-17.33-.07h-3.406a1.919,1.919,0,0,1-1.2-.321,1.879,1.879,0,0,1-.736-1.026,4.933,4.933,0,0,1-.063-1.206q0-1.175,0-2.349v-7.087a1.848,1.848,0,0,1,1.832-1.621l65.271.36,11.269.086a4.85,4.85,0,0,1,1.253.086,1.731,1.731,0,0,1,.963.783,1.887,1.887,0,0,1,.251,1.143V275a2.145,2.145,0,0,1-.164,1.026,1.66,1.66,0,0,1-1.057.893A1.237,1.237,0,0,1,299.9,276.974Z" transform="translate(-202.446 -122.023)" fill="#e0e0e0"/><rect width="36.837" height="3.453" rx="1.727" transform="translate(24.202 111.211) rotate(0.26)" fill="#3e70d3"/><path d="M231.618,272.161a1.613,1.613,0,1,1-1.566-1.731A1.66,1.66,0,0,1,231.618,272.161Z" transform="translate(-204.084 -123.599)" fill="#3e70d3"/><path d="M237.987,272.192a1.613,1.613,0,1,1-.77-1.49A1.613,1.613,0,0,1,237.987,272.192Z" transform="translate(-205.465 -123.607)" fill="#3e70d3"/><path d="M244.368,272.221a1.613,1.613,0,1,1-1.566-1.731A1.668,1.668,0,0,1,244.368,272.221Z" transform="translate(-206.849 -123.612)" fill="#3e70d3"/><path d="M250.738,272.251a1.613,1.613,0,1,1-1.566-1.731A1.668,1.668,0,0,1,250.738,272.251Z" transform="translate(-208.231 -123.619)" fill="#3e70d3"/><path d="M257.107,272.273a1.613,1.613,0,1,1-1.566-1.723A1.668,1.668,0,0,1,257.107,272.273Z" transform="translate(-209.613 -123.625)" fill="#3e70d3"/><path d="M263.487,272.3a1.613,1.613,0,1,1-1.605-1.723,1.668,1.668,0,0,1,1.605,1.723Z" transform="translate(-210.996 -123.632)" fill="#3e70d3"/><path d="M269.857,272.332a1.613,1.613,0,1,1-.77-1.49A1.613,1.613,0,0,1,269.857,272.332Z" transform="translate(-212.378 -123.638)" fill="#3e70d3"/><path d="M276.227,272.363a1.613,1.613,0,1,1-1.605-1.723,1.668,1.668,0,0,1,1.605,1.723Z" transform="translate(-213.76 -123.645)" fill="#3e70d3"/><path d="M282.6,272.393a1.613,1.613,0,1,1-1.566-1.723A1.668,1.668,0,0,1,282.6,272.393Z" transform="translate(-215.142 -123.651)" fill="#3e70d3"/><path d="M272.707,126.9a3.031,3.031,0,0,0,1.809-2.811,2.85,2.85,0,1,0-5.693,0,3.038,3.038,0,0,0,1.817,2.843c-4.385.658-4.19,5.419-4.19,5.419l10.368.047S277.061,127.55,272.707,126.9Z" transform="translate(-212.338 -91.207)" fill="#3e70d3"/><rect width="36.954" height="4.417" rx="2" transform="translate(40.263 44.095) rotate(0.26)" fill="#3e70d3"/></g><g transform="translate(94.46 140.491)"><path d="M116.89,168.68h-.368l-1.065.078a12.081,12.081,0,0,0-1.715.227,10.593,10.593,0,0,0-1.088.211l-1.214.337a19.945,19.945,0,0,0-5.771,2.858,20.314,20.314,0,0,0-5.685,6.327,21.207,21.207,0,0,0-1.989,4.55,21.88,21.88,0,0,0-.869,5.309,21.52,21.52,0,0,0,.047,2.835,11.562,11.562,0,0,0,.2,1.441,9.258,9.258,0,0,0,.274,1.449,20.666,20.666,0,0,0,11.746,14.354,18.606,18.606,0,0,0,6.727,1.511,18.16,18.16,0,0,0,7.048-1.01l.689-.258h.094l.078.047,9.875,5.012-.29.251c-1.057-3.273-2.075-6.445-3.062-9.491V204.6l.086-.086a21.144,21.144,0,0,0,5.184-8.614,21.692,21.692,0,0,0,.783-9.178,21.442,21.442,0,0,0-2.592-7.784,21.143,21.143,0,0,0-4.464-5.482,21.808,21.808,0,0,0-4.847-3.085,21.1,21.1,0,0,0-4.1-1.292l-1.566-.258-1.135-.086-.689-.047h-.235a1.068,1.068,0,0,1,.235,0h.7l1.136.047,1.566.227a20.752,20.752,0,0,1,4.158,1.245,21.763,21.763,0,0,1,4.934,3.078,21.2,21.2,0,0,1,4.558,5.482,21.5,21.5,0,0,1,2.67,7.886,21.927,21.927,0,0,1-.728,9.334,21.425,21.425,0,0,1-5.262,8.794l.047-.2c.987,3.046,2.013,6.218,3.078,9.483l.149.478-.446-.227-9.875-5h.172l-.7.258a18.685,18.685,0,0,1-7.181,1.034,19.029,19.029,0,0,1-6.868-1.566,20.6,20.6,0,0,1-9.812-8.778,20.909,20.909,0,0,1-2.216-5.795,12,12,0,0,1-.274-1.48c-.063-.493-.164-.979-.188-1.464a23.141,23.141,0,0,1,.869-8.27,21.057,21.057,0,0,1,2.044-4.6,20.493,20.493,0,0,1,5.8-6.367,19.8,19.8,0,0,1,5.865-2.835l1.229-.313a10.88,10.88,0,0,1,1.1-.2,11.626,11.626,0,0,1,1.731-.188l1.073-.039A2.627,2.627,0,0,1,116.89,168.68Z" transform="translate(-96.745 -168.68)" fill="#fff"/><path d="M124.8,189.98H123.35l-3.132-4.4v-2.89s-2.24-.141-1.973,3.641,0,2.819,0,2.819-4.753,0-5.145.431-.415,5.02-.47,7.58a2.772,2.772,0,0,0,1.966,2.788,1.942,1.942,0,0,0,.509.07c1.19,0,7.244-.963,7.244-.963h2.5Z" transform="translate(-100.19 -171.719)" fill="#fb9300"/><path d="M132.527,191.01l-.893,9.9H129.16v-9.695Z" transform="translate(-103.776 -173.523)" fill="#fb9300"/></g><g transform="translate(114.597 145.146)"><path d="M167.8,446.462v-6.7l-12-.086-.1,10.125.744.055c3.313.211,16.852.525,19.076-.164C177.985,448.928,167.8,446.462,167.8,446.462Z" transform="translate(-129.668 -232.117)" fill="#3a3b39"/><path d="M205.547,446.462v-6.7l-12-.086-.1,10.024.744.055c3.312.211,16.86.626,19.076-.063C215.735,448.928,205.547,446.462,205.547,446.462Z" transform="translate(-137.856 -232.117)" fill="#3a3b39"/><path d="M234.38,191.516c-.313-.321-1.089-.164-1.089-.164a4.008,4.008,0,0,0,0-1.363c-.141-.439-1.128-.352-1.128-.352a4.551,4.551,0,0,1,0-1.112.4.4,0,0,0-.227-.4,3.617,3.617,0,0,0-1.472-.266c-.6-.431,1.84-3.853,2.749-4.949s.744-1.95-.063-1.95c-.556,0-3.406,3.289-4.284,4.393s-3.2,4.174-3.281,1.723-1.065-4.3-1.684-4.612-1.276.423-.94,1.1a8.764,8.764,0,0,1,.548,2.412,5.767,5.767,0,0,1-.086,1.973,23.675,23.675,0,0,1-1.057,3.54H222.3s-17.087,16.39-18.324,17.557c-1.1,1.049-23.313-1.245-27.769-1.715a29.821,29.821,0,0,0-4.573-.313c-1.934.086-2.279.36-4.205.384a95.242,95.242,0,0,0-14.519,1.276,12.036,12.036,0,0,0-9.444,8.191c-4.487,14.017-14.652,47.2-16.445,65.835a79.1,79.1,0,0,0-3.665,7.573c-1.261,3.43-.955,3.547-.533,3.626,1.143.211,2.443-5.944,2.929-4.456s-2.467,7.338-1.269,7.51c1.566.219,2.811-6.265,2.96-6.782s.924-.352.783.133c-.227.689-2.428,8-.893,8.23.846.125.94-1.417.94-1.417s1.566-6.993,2.279-6.852-.047,4.268-.407,5.646.141,2.075.877,1.738c.5-.235,1.7-4.424,2.028-5.787s1.151-5.137,2.255-2.952,2.78,3.453,3.469,3.485a.783.783,0,0,0,.384-1.4,8.872,8.872,0,0,1-1.511-1.958,5.772,5.772,0,0,1-.783-1.832,19.868,19.868,0,0,1-.548-3.962l-.125-.783c1.754-8.685,6.805-34.174,14.1-50.455l2.991,6.155,1.3,4.558L146.611,262.4l34-.446-5.074-19.53,6.163-20.36h0c6.664.149,23.775.4,26.625-.893,3.587-1.566,22.138-25,22.138-25h0a42.852,42.852,0,0,0,3.469-3.007S235.061,192.221,234.38,191.516Z" transform="translate(-122.46 -175.999)" fill="#ffbe9d"/><path d="M148.457,254.632c.987-3.367,6.053-20.016,6.053-20.016s2.49,13.571,1.832,15.208a28.977,28.977,0,0,1-2.138,4.041c-5.748,8.747-5,13.125-5,13.125l34.73-1.057c.078-4.855-2.8-16.147-3.391-17.949s1.386-7.7,1.386-7.7,3.915-3.986,3.775-6.038a33.191,33.191,0,0,0-.681-5.482l21.144.783-.666-14.331-30.368-3.038c-1.057,2.984-10.619,1.519-10.619,1.519-10.321.345-10.963,2.24-15.255,5.576s-11.394,31.966-11.394,31.966Z" transform="translate(-125.803 -182.771)" fill="#00aec8"/><path d="M181.966,205.7c.086-1.746.266-3.72.266-3.72a5.231,5.231,0,0,0,4.581-4.941c.258-4.464,0-14.761,0-14.761l-7.831-4.009-8.692,6.836,1.339,22.318,7.972.509A2.3,2.3,0,0,0,181.966,205.7Z" transform="translate(-132.835 -175.415)" fill="#ffbe9d"/><path d="M185.7,197.025a.363.363,0,0,1-.07.188.579.579,0,0,1-.493.219c-.5,0-.987-.58-1.159-1.253a2.045,2.045,0,0,1,0-.995.861.861,0,0,1,.47-.673.431.431,0,0,1,.329,0,.4.4,0,0,1,.18.18.221.221,0,0,1,0,.211.229.229,0,0,0-.078-.157.282.282,0,0,0-.368-.078.666.666,0,0,0-.321.556,2,2,0,0,0,0,.885c.157.611.579,1.1.955,1.151a.54.54,0,0,0,.415-.117C185.649,197.08,185.68,197.017,185.7,197.025Z" transform="translate(-135.789 -178.931)" fill="#eb996e"/><path d="M183.828,179.077c-.6-2.052-2.788-3.07-4.777-3.634-3.031-.861-6.3-1.237-9.264-.149s-6.515,3-6.515,6.265c-1.746-.141-2.749,1.386-3.438,3.281a12.3,12.3,0,0,0-.783,3.6h0c-.219,4.276-1.417,10.18-4.19,13.313-1.566,1.746-3.735,2.952-4.628,5.129-.783,1.887-.376,4.127-1.1,6.038-.65,1.684-2.083,2.882-3.132,4.346a11.652,11.652,0,0,0-.744,11.269,14.268,14.268,0,0,0,8.528,7.361,19.945,19.945,0,0,0,11.237.11,18.794,18.794,0,0,0,7.533-3.735,12.576,12.576,0,0,0,4.37-7.236c.556-3.2-.337-6.445-1-9.624-2.083-10.047-1.488-10.572,1.143-19.9.063-.164.094-.337.141-.5s.07-.243.1-.368h0a5.9,5.9,0,0,0,.117-1.12,2.153,2.153,0,0,1-2.263-.486,2.349,2.349,0,0,1-.533-2.349,3.414,3.414,0,0,1,2.02-1.9c.869-.36,1.8-.548,2.655-.948a8.869,8.869,0,0,0,3.915-4.518,6.2,6.2,0,0,0,.611-4.244Z" transform="translate(-127.163 -174.625)" fill="#e73a5e"/><path d="M186.221,198a3.831,3.831,0,0,1,.407.783c.235.493.548,1.19.893,2l.063.149h-.164l-.783.07c-.54,0-.995.1-1.527.094a.282.282,0,0,1-.2-.18.353.353,0,0,1,0-.219,3.132,3.132,0,0,1,.07-.313l.141-.556a5.3,5.3,0,0,1,.329-1.081,5.287,5.287,0,0,1-.164,1.12l-.11.556c-.039.188-.11.478,0,.454.392,0,.948-.086,1.464-.117l.783-.07-.1.172c-.337-.783-.619-1.519-.783-2.028A3.055,3.055,0,0,1,186.221,198Z" transform="translate(-136.001 -179.695)" fill="#7e57c2"/><path d="M151.886,281.877l34.73-1.057,15.114,59-2.78,67.675H180.586l2.247-66.234L169.4,300.186l2.067,109.931-18.559.274-1.95-103.329c-.086-2.874-1.026-9.35-.673-12.2Z" transform="translate(-128.479 -197.659)" fill="#fb9300"/><path d="M152.16,283.122a4.761,4.761,0,0,0,3.43,1.825,15.452,15.452,0,0,0,4.205-.078c8.966-.995,18.465-1.911,27.244-4.049-11.363.634-23.368.423-34.73,1.057l-.117.971" transform="translate(-128.902 -197.659)" opacity="0.2"/><g transform="translate(34.965 101.478)" opacity="0.2"><path d="M167.11,304.21l6.406,24.855-.446-23.806Z" transform="translate(-167.11 -304.21)"/></g></g></g></svg>